<svg id="visual" viewBox="0 0 900 600" width="900" height="600" xmlns="http://www.w3.org/2000/svg" xmlns:xlink="http://www.w3.org/1999/xlink" version="1.1"><rect x="0" y="0" width="900" height="600" fill="#001220"></rect><path d="M0 422L21.5 424.7C43 427.3 86 432.7 128.8 422.3C171.7 412 214.3 386 257.2 380C300 374 343 388 385.8 396.3C428.7 404.7 471.3 407.3 514.2 411.2C557 415 600 420 642.8 414.7C685.7 409.3 728.3 393.7 771.2 391.5C814 389.3 857 400.7 878.5 406.3L900 412L900 601L878.5 601C857 601 814 601 771.2 601C728.3 601 685.7 601 642.8 601C600 601 557 601 514.2 601C471.3 601 428.7 601 385.8 601C343 601 300 601 257.2 601C214.3 601 171.7 601 128.8 601C86 601 43 601 21.5 601L0 601Z" fill="#69e4fa"></path><path d="M0 455L21.5 458.3C43 461.7 86 468.3 128.8 471C171.7 473.7 214.3 472.3 257.2 470.2C300 468 343 465 385.8 453.2C428.7 441.3 471.3 420.7 514.2 417C557 413.3 600 426.7 642.8 434.5C685.7 442.3 728.3 444.7 771.2 443.2C814 441.7 857 436.3 878.5 433.7L900 431L900 601L878.5 601C857 601 814 601 771.2 601C728.3 601 685.7 601 642.8 601C600 601 557 601 514.2 601C471.3 601 428.7 601 385.8 601C343 601 300 601 257.2 601C214.3 601 171.7 601 128.8 601C86 601 43 601 21.5 601L0 601Z" fill="#28c5f7"></path><path d="M0 452L21.5 456.3C43 460.7 86 469.3 128.8 477.7C171.7 486 214.3 494 257.2 497C300 500 343 498 385.8 497.3C428.7 496.7 471.3 497.3 514.2 499.5C557 501.7 600 505.3 642.8 498C685.7 490.7 728.3 472.3 771.2 469.8C814 467.3 857 480.7 878.5 487.3L900 494L900 601L878.5 601C857 601 814 601 771.2 601C728.3 601 685.7 601 642.8 601C600 601 557 601 514.2 601C471.3 601 428.7 601 385.8 601C343 601 300 601 257.2 601C214.3 601 171.7 601 128.8 601C86 601 43 601 21.5 601L0 601Z" fill="#00a3ef"></path><path d="M0 492L21.5 492.8C43 493.7 86 495.3 128.8 501C171.7 506.7 214.3 516.3 257.2 515.5C300 514.7 343 503.3 385.8 505.2C428.7 507 471.3 522 514.2 525.2C557 528.3 600 519.7 642.8 518.7C685.7 517.7 728.3 524.3 771.2 529C814 533.7 857 536.3 878.5 537.7L900 539L900 601L878.5 601C857 601 814 601 771.2 601C728.3 601 685.7 601 642.8 601C600 601 557 601 514.2 601C471.3 601 428.7 601 385.8 601C343 601 300 601 257.2 601C214.3 601 171.7 601 128.8 601C86 601 43 601 21.5 601L0 601Z" fill="#007fe0"></path><path d="M0 531L21.5 534.3C43 537.7 86 544.3 128.8 550.3C171.7 556.3 214.3 561.7 257.2 565C300 568.3 343 569.7 385.8 566C428.7 562.3 471.3 553.7 514.2 553C557 552.3 600 559.7 642.8 559.7C685.7 559.7 728.3 552.3 771.2 550.3C814 548.3 857 551.7 878.5 553.3L900 555L900 601L878.5 601C857 601 814 601 771.2 601C728.3 601 685.7 601 642.8 601C600 601 557 601 514.2 601C471.3 601 428.7 601 385.8 601C343 601 300 601 257.2 601C214.3 601 171.7 601 128.8 601C86 601 43 601 21.5 601L0 601Z" fill="#1858c9"></path></svg>