<svg id="visual" viewBox="0 0 900 600" width="900" height="600" xmlns="http://www.w3.org/2000/svg" xmlns:xlink="http://www.w3.org/1999/xlink" version="1.1"><rect x="0" y="0" width="900" height="600" fill="#001220"></rect><path d="M0 176L21.5 173.3C43 170.7 86 165.3 128.8 175.7C171.7 186 214.3 212 257.2 218C300 224 343 210 385.8 201.7C428.7 193.3 471.3 190.7 514.2 186.8C557 183 600 178 642.8 183.3C685.7 188.7 728.3 204.3 771.2 206.5C814 208.7 857 197.3 878.5 191.7L900 186L900 0L878.5 0C857 0 814 0 771.2 0C728.3 0 685.7 0 642.8 0C600 0 557 0 514.2 0C471.3 0 428.7 0 385.8 0C343 0 300 0 257.2 0C214.3 0 171.7 0 128.8 0C86 0 43 0 21.5 0L0 0Z" fill="#b7f4ff"></path><path d="M0 143L21.5 139.7C43 136.3 86 129.7 128.8 127C171.7 124.3 214.3 125.7 257.2 127.8C300 130 343 133 385.8 144.8C428.7 156.7 471.3 177.3 514.2 181C557 184.7 600 171.3 642.8 163.5C685.7 155.7 728.3 153.3 771.2 154.8C814 156.3 857 161.7 878.5 164.3L900 167L900 0L878.5 0C857 0 814 0 771.2 0C728.3 0 685.7 0 642.8 0C600 0 557 0 514.2 0C471.3 0 428.7 0 385.8 0C343 0 300 0 257.2 0C214.3 0 171.7 0 128.8 0C86 0 43 0 21.5 0L0 0Z" fill="#8ee2fe"></path><path d="M0 146L21.5 141.7C43 137.3 86 128.7 128.8 120.3C171.7 112 214.3 104 257.2 101C300 98 343 100 385.8 100.7C428.7 101.3 471.3 100.7 514.2 98.5C557 96.3 600 92.7 642.8 100C685.7 107.3 728.3 125.7 771.2 128.2C814 130.7 857 117.3 878.5 110.7L900 104L900 0L878.5 0C857 0 814 0 771.2 0C728.3 0 685.7 0 642.8 0C600 0 557 0 514.2 0C471.3 0 428.7 0 385.8 0C343 0 300 0 257.2 0C214.3 0 171.7 0 128.8 0C86 0 43 0 21.5 0L0 0Z" fill="#6aceff"></path><path d="M0 106L21.5 105.2C43 104.3 86 102.7 128.8 97C171.7 91.3 214.3 81.7 257.2 82.5C300 83.3 343 94.7 385.8 92.8C428.7 91 471.3 76 514.2 72.8C557 69.7 600 78.3 642.8 79.3C685.7 80.3 728.3 73.7 771.2 69C814 64.3 857 61.7 878.5 60.3L900 59L900 0L878.5 0C857 0 814 0 771.2 0C728.3 0 685.7 0 642.8 0C600 0 557 0 514.2 0C471.3 0 428.7 0 385.8 0C343 0 300 0 257.2 0C214.3 0 171.7 0 128.8 0C86 0 43 0 21.5 0L0 0Z" fill="#57b7ff"></path><path d="M0 67L21.5 63.7C43 60.3 86 53.7 128.8 47.7C171.7 41.7 214.3 36.3 257.2 33C300 29.7 343 28.3 385.8 32C428.7 35.7 471.3 44.3 514.2 45C557 45.7 600 38.3 642.8 38.3C685.7 38.3 728.3 45.7 771.2 47.7C814 49.7 857 46.3 878.5 44.7L900 43L900 0L878.5 0C857 0 814 0 771.2 0C728.3 0 685.7 0 642.8 0C600 0 557 0 514.2 0C471.3 0 428.7 0 385.8 0C343 0 300 0 257.2 0C214.3 0 171.7 0 128.8 0C86 0 43 0 21.5 0L0 0Z" fill="#669dff"></path></svg>