<?xml version="1.0" encoding="UTF-8"?>
<svg viewBox="0 0 374.84521 1252.1038" xmlns="http://www.w3.org/2000/svg" xmlns:xlink="http://www.w3.org/1999/xlink">
 <defs>
  <filter id="i">
   <feGaussianBlur stdDeviation="1.8405"/>
  </filter>
  <filter id="b">
   <feGaussianBlur stdDeviation=".8476"/>
  </filter>
  <filter id="h">
   <feGaussianBlur stdDeviation="3.8405"/>
  </filter>
  <filter id="g">
   <feGaussianBlur stdDeviation="2.0388"/>
  </filter>
  <filter id="k" x="-.0746" y="-.30658" width="1.1492" height="1.6132">
   <feGaussianBlur stdDeviation="9.4197"/>
  </filter>
  <filter id="j" x="-.18166" y="-.03593" width="1.3633" height="1.0719">
   <feGaussianBlur stdDeviation="3.0687"/>
  </filter>
  <filter id="c" x="-.05634" y="-.16504" width="1.1127" height="1.3301">
   <feGaussianBlur stdDeviation="1.7438"/>
  </filter>
  <linearGradient id="d">
   <stop offset="0"/>
   <stop stop-opacity="0" offset="1"/>
  </linearGradient>
  <radialGradient id="a" cx="-127.78" cy="653.6" r="10.859" gradientUnits="userSpaceOnUse">
   <stop stop-color="#fff" offset="0"/>
   <stop stop-color="#fff" stop-opacity="0" offset="1"/>
  </radialGradient>
  <radialGradient id="f" cx="201.02" cy="1224" r="151.52" gradientTransform="matrix(1 0 0 .10333 0 1097.5)" gradientUnits="userSpaceOnUse" xlink:href="#d"/>
  <radialGradient id="e" cx="201.02" cy="1224" r="152.02" gradientTransform="matrix(1 0 0 .24582 0 923.13)" gradientUnits="userSpaceOnUse" xlink:href="#d"/>
 </defs>
 <g transform="translate(-175.49 129.44)">
  <path transform="translate(164.69 -171.35)" d="m352.54 1224c0 20.363-67.839 36.871-151.52 36.871s-151.52-16.508-151.52-36.871 67.839-36.87 151.52-36.87 151.52 16.508 151.52 36.87z" fill="url(#e)" filter="url(#k)" opacity=".8411" stroke="url(#f)"/>
  <path d="m229.28 527.51c8.0953-9.7566 16.19-11.621 24.286 1.4286 29.634 121.45 148.2 201.48 158.57 203.57s16.809 5.6636 30.714-5.7143 30.074-27.129 44.286-31.429c6.9652-1.0313 38.096-3.515 28.571 24.286-11.301 11.075-22.19 24.453-26.429 36.429s-8.3633 22.113-2.8571 42.857c0 0 47.109 81.033 50 103.57s-2.2207 51.317-11.786 68.214c-47.029 74.565-229.77 85.896-297.86 28.571-44.204-47.766-36.173-86.036-18.214-122.5 88.201-133.89 45.223-147.31 12.857-252.86-6.6008-23.551-7.3695-78.26 7.8571-96.429z" fill="#3e51b7"/>
  <path d="m347.10505-49.06682-17.6659-.8573c-4.5008-1.7967-7.3111-8.1681-10.0017-11.7165s-8.1697-2.2429-8.8892.2834 .7705,5.8789 1.1749,9.0049c.4789,2.5429.492,6.1975-.5671,8.8763-.6491,3.0844-2.3983,6.3094-1.8799,8.8845s5.8777,4.3077 8.8393.9821 6.2646-9.4559 10.8928-10.8928l17.6786.5357" fill="#c6c6c6" stroke="#000" stroke-width=".4"/>
  <path d="m338.39315,4.86178-17.6659-.8574c-4.5008-1.7967-7.3111-8.1681-10.0017-11.7164s-8.1697-2.2429-8.8892.2834 .7705,5.8789 1.1749,9.0049c.4789,2.5429.492,6.1974-.5671,8.8762-.6491,3.0845-2.3983,6.3095-1.8799,8.8846s5.8777,4.3077 8.8393.9821 6.2646-9.456 10.8928-10.8928l17.6786.5357" fill="#c6c6c6" stroke="#000" stroke-width=".4"/>
  <path d="m384.80905-62.63822 17.6659-.8574c4.5008-1.7967 7.3111-8.1681 10.0017-11.7164s8.1697-2.2429 8.8892.2834-.7705,5.8789-1.1748,9.0049c-.4789,2.5429-.4921,6.1974.567,8.8762 .6491,3.0845 2.3984,6.3095 1.88,8.8846s-5.8777,4.3077-8.8393.9821-6.2646-9.456-10.8929-10.8928l-17.6786.5357" fill="#c6c6c6" stroke="#000" stroke-width=".4"/>
  <path d="m394.72245-9.42392 17.6659-.8574c4.5008-1.7967 7.3111-8.1681 10.0017-11.7164s8.1697-2.2429 8.8892.2834-.7705,5.8789-1.1749,9.0049c-.4789,2.5429-.492,6.1974.5671,8.8762 .6491,3.0845 2.3983,6.3095 1.8799,8.8846s-5.8777,4.3076-8.8393.9821-6.2646-9.456-10.8928-10.8929l-17.6786.5358" fill="#c6c6c6" stroke="#000" stroke-width=".4"/>
  <path d="m331.78 774.47c0.3309-63.5 76.203-45.301 73.929-1.4286-0.7866 2.3546-1.4726 4.7293-5.5357 6.4286l-62.5 2.5c-5.4361-2.996-4.8472-5.1312-5.8929-7.5z" filter="url(#i)" opacity=".4"/>
  <path d="m333.56 771.08 12.143-717.68c-1.5984-2.0833-0.6066-15.595-23.214-25-1.7857-1.7857-2.3809-4.5238-1.7857-8.2143 3.2716-22.573 13.995-38 16.178-60.152 1.7256-17.504 2.3328-26.751 12.572-52.348 11.896-20.506 24.478-23.183 37.321-26.607 6.6643-1.4123 10.772-0.071 11.25 5.1786-5.0441 39.388-0.5909 88.536 16.786 128.93 0.632 4.2108-0.037 6.8602-1.7857 8.2143-14.831 3.3501-21.683 14.36-24.643 29.107l15.893 717.14c-0.7866 2.3546-1.4726 4.7293-5.5357 6.4286l-59.286 2.5c-5.4361-2.996-4.8472-5.1312-5.8929-7.5z" fill="#cf904f"/>
  <path d="m329.99 972.69h80.179a5 5 0 0 1 5 5v39.286a5 5 0 0 1 -5 5h-80.179a5 5 0 0 1 -5 -5v-39.286a5 5 0 0 1 5 -5" fill="#262626" stroke="#000" stroke-width=".6"/>
  <path d="m384.10015,840.35871v3.7578c0,2.77-2.23,5-5,5h-53.0357c-2.77,0-5-2.23-5-5v-3.96294l-.081-.17514c-.5156.24867-1.0938.38804-1.7045.38804-2.1697,0-3.9286-1.75888-3.9286-3.92857s1.7589-3.92858 3.9286-3.92858c.6021,0 1.1726.13545 1.6826.37755l.1031-.0569v-4.07059c0-2.77 2.23-5 5-5h53.0357c2.77,0 5,2.23 5,5v3.64438l.4839.32632c.3465-.13088.7223-.20852 1.1233-.22071 2.1697,0 3.9286,1.75889 3.9286,3.92858s-1.7589,3.92857-3.9286,3.92857c-.413-.0456-.7875-.12672-1.1254-.23781z" filter="url(#c)" opacity=".6"/>
  <path d="m384.10015,836.78728v3.7578c0,2.77-2.23,5-5,5h-53.0357c-2.77,0-5-2.23-5-5v-3.96294l-.081-.17514c-.5156.24867-1.0938.38804-1.7045.38804-2.1697,0-3.9286-1.75888-3.9286-3.92857s1.7589-3.92858 3.9286-3.92858c.6021,0 1.1726.13545 1.6826.37755l.1031-.0569v-4.07059c0-2.77 2.23-5 5-5h53.0357c2.77,0 5,2.23 5,5v3.64438l.4839.32632c.3465-.13088.7223-.20852 1.1233-.22071 2.1697,0 3.9286,1.75889 3.9286,3.92858s-1.7589,3.92857-3.9286,3.92857c-.413-.0456-.7875-.12672-1.1254-.23781z" fill="#393939" stroke="#000" stroke-width=".6"/>
  <path d="m423.38586,933.93014v3.7578c0,2.77-2.23,5-5,5h-90.5357c-2.77,0-5-2.23-5-5v-3.96294l-.081-.17514c-.5156.24867-1.0938.38804-1.7045.38804-2.1697,0-3.9286-1.75888-3.9286-3.92857s1.7589-3.92858 3.9286-3.92858c.6021,0 1.1726.13545 1.6826.37755l.1031-.0569v-4.07059c0-2.77 2.23-5 5-5h90.5357c2.77,0 5,2.23 5,5v3.64438l.4839.32632c.3465-.13088.7223-.20852 1.1233-.22071 2.1697,0 3.9286,1.75889 3.9286,3.92858s-1.7589,3.92857-3.9286,3.92857c-.413-.0456-.7875-.12672-1.1254-.23781z" filter="url(#c)" opacity=".6"/>
  <path d="m421.47585,931.99417v3.7578c0,2.77-2.23,5-5,5h-87.1284c-2.77,0-5-2.23-5-5v-3.9629l-.081-.1752c-.5156.2487-1.0938.3881-1.7045.3881-2.1697,0-3.9286-1.7589-3.9286-3.9286s1.7589-3.9286 3.9286-3.9286c.6021,0 1.1726.1355 1.6826.3776l.1031-.057v-4.0706c0-2.77 2.23-5 5-5h87.1283c2.77,0 5,2.23 5,5v3.6443l.4839.3264c.3466-.1309.7223-.2086 1.1233-.2207 2.1697,0 3.9286,1.7588 3.9286,3.9285s-1.7589,3.9286-3.9286,3.9286c-.4129-.046-.7875-.1267-1.1254-.2378z" fill="#393939" stroke="#000" stroke-width=".6"/>
  <path transform="translate(618.21 230.5)" d="m-115.68 653.6c0 6.6877-5.4214 12.109-12.109 12.109s-12.109-5.4214-12.109-12.109 5.4214-12.109 12.109-12.109 12.109 5.4214 12.109 12.109z" filter="url(#b)" opacity=".4"/>
  <path transform="translate(617.85 228.72)" d="m-116.93 653.6c0 5.9973-4.8618 10.859-10.859 10.859s-10.859-4.8618-10.859-10.859 4.8618-10.859 10.859-10.859 10.859 4.8618 10.859 10.859z" fill="#262626" stroke="#000" stroke-width=".6"/>
  <path transform="translate(626.6 284.08)" d="m-115.68 653.6c0 6.6877-5.4214 12.109-12.109 12.109s-12.109-5.4214-12.109-12.109 5.4214-12.109 12.109-12.109 12.109 5.4214 12.109 12.109z" filter="url(#b)" opacity=".4"/>
  <path transform="translate(626.69 281.75)" d="m-116.93 653.6c0 5.9973-4.8618 10.859-10.859 10.859s-10.859-4.8618-10.859-10.859 4.8618-10.859 10.859-10.859 10.859 4.8618 10.859 10.859z" fill="#262626" stroke="#000" stroke-width=".6"/>
  <path transform="translate(603.74 332.83)" d="m-115.68 653.6c0 6.6877-5.4214 12.109-12.109 12.109s-12.109-5.4214-12.109-12.109 5.4214-12.109 12.109-12.109 12.109 5.4214 12.109 12.109z" filter="url(#b)" opacity=".4"/>
  <path transform="translate(604.21 331)" d="m-116.93 653.6c0 5.9973-4.8618 10.859-10.859 10.859s-10.859-4.8618-10.859-10.859 4.8618-10.859 10.859-10.859 10.859 4.8618 10.859 10.859z" fill="#262626" stroke="#000" stroke-width=".6"/>
  <g fill="#181818" stroke="#000">
   <path transform="translate(617.85 227.62)" d="m-278.55 605.24c0 1.6039-1.3002 2.9042-2.9042 2.9042s-2.9042-1.3002-2.9042-2.9042 1.3002-2.9042 2.9042-2.9042 2.9042 1.3002 2.9042 2.9042z"/>
   <path transform="translate(625.68 227.62)" d="m-278.55 605.24c0 1.6039-1.3002 2.9042-2.9042 2.9042s-2.9042-1.3002-2.9042-2.9042 1.3002-2.9042 2.9042-2.9042 2.9042 1.3002 2.9042 2.9042z"/>
  </g>
  <g fill="#181818" stroke="#000">
   <path transform="translate(640 227.62)" d="m-278.55 605.24c0 1.6039-1.3002 2.9042-2.9042 2.9042s-2.9042-1.3002-2.9042-2.9042 1.3002-2.9042 2.9042-2.9042 2.9042 1.3002 2.9042 2.9042z"/>
   <path transform="translate(647.83 227.62)" d="m-278.55 605.24c0 1.6039-1.3002 2.9042-2.9042 2.9042s-2.9042-1.3002-2.9042-2.9042 1.3002-2.9042 2.9042-2.9042 2.9042 1.3002 2.9042 2.9042z"/>
  </g>
  <path d="m423.38586,868.21585v3.7578c0,2.77-2.23,5-5,5h-53.0357c-2.77,0-5-2.23-5-5v-3.96294l-.081-.17514c-.5156.24867-1.0938.38804-1.7045.38804-2.1697,0-3.9286-1.75888-3.9286-3.92857s1.7589-3.92858 3.9286-3.92858c.6021,0 1.1726.13545 1.6826.37755l.1031-.0569v-4.07059c0-2.77 2.23-5 5-5h53.0357c2.77,0 5,2.23 5,5v3.64438l.4839.32632c.3465-.13088.7223-.20852 1.1233-.22071 2.1697,0 3.9286,1.75889 3.9286,3.92858s-1.7589,3.92857-3.9286,3.92857c-.413-.0456-.7875-.12672-1.1254-.23781z" filter="url(#c)" opacity=".6"/>
  <path d="m424.25375,863.80886v3.7578c0,2.77-2.23,5-5,5h-53.0357c-2.77,0-5-2.23-5-5v-3.96294l-.081-.17514c-.5156.24867-1.0938.38804-1.7045.38804-2.1697,0-3.9286-1.75888-3.9286-3.92857s1.7589-3.92858 3.9286-3.92858c.6021,0 1.1725.13545 1.6826.37755l.103-.0569v-4.07059c0-2.77 2.23-5 5-5h53.0358c2.77,0 5,2.23 5,5v3.64438l.4838.32632c.3466-.13088.7224-.20852 1.1234-.22071 2.1697,0 3.9285,1.75889 3.9285,3.92858s-1.7588,3.92857-3.9285,3.92857c-.413-.0456-.7876-.12672-1.1255-.23781z" fill="#393939" stroke="#000" stroke-width=".6"/>
  <g fill="#181818" stroke="#000">
   <path transform="translate(658 254.64)" d="m-278.55 605.24c0 1.6039-1.3002 2.9042-2.9042 2.9042s-2.9042-1.3002-2.9042-2.9042 1.3002-2.9042 2.9042-2.9042 2.9042 1.3002 2.9042 2.9042z"/>
   <path transform="translate(665.83 254.64)" d="m-278.55 605.24c0 1.6039-1.3002 2.9042-2.9042 2.9042s-2.9042-1.3002-2.9042-2.9042 1.3002-2.9042 2.9042-2.9042 2.9042 1.3002 2.9042 2.9042z"/>
  </g>
  <g fill="#181818" stroke="#000">
   <path transform="translate(680.15 254.64)" d="m-278.55 605.24c0 1.6039-1.3002 2.9042-2.9042 2.9042s-2.9042-1.3002-2.9042-2.9042 1.3002-2.9042 2.9042-2.9042 2.9042 1.3002 2.9042 2.9042z"/>
   <path transform="translate(687.98 254.64)" d="m-278.55 605.24c0 1.6039-1.3002 2.9042-2.9042 2.9042s-2.9042-1.3002-2.9042-2.9042 1.3002-2.9042 2.9042-2.9042 2.9042 1.3002 2.9042 2.9042z"/>
  </g>
  <g fill="#181818" stroke="#000">
   <path transform="translate(618.86 322.83)" d="m-278.55 605.24c0 1.6039-1.3002 2.9042-2.9042 2.9042s-2.9042-1.3002-2.9042-2.9042 1.3002-2.9042 2.9042-2.9042 2.9042 1.3002 2.9042 2.9042z"/>
   <path transform="translate(626.69 322.83)" d="m-278.55 605.24c0 1.6039-1.3002 2.9042-2.9042 2.9042s-2.9042-1.3002-2.9042-2.9042 1.3002-2.9042 2.9042-2.9042 2.9042 1.3002 2.9042 2.9042z"/>
  </g>
  <g fill="#181818" stroke="#000">
   <path transform="translate(641.01 322.83)" d="m-278.55 605.24c0 1.6039-1.3002 2.9042-2.9042 2.9042s-2.9042-1.3002-2.9042-2.9042 1.3002-2.9042 2.9042-2.9042 2.9042 1.3002 2.9042 2.9042z"/>
   <path transform="translate(648.84 322.83)" d="m-278.55 605.24c0 1.6039-1.3002 2.9042-2.9042 2.9042s-2.9042-1.3002-2.9042-2.9042 1.3002-2.9042 2.9042-2.9042 2.9042 1.3002 2.9042 2.9042z"/>
  </g>
  <g fill="#181818" stroke="#000">
   <path transform="translate(661.03 322.83)" d="m-278.55 605.24c0 1.6039-1.3002 2.9042-2.9042 2.9042s-2.9042-1.3002-2.9042-2.9042 1.3002-2.9042 2.9042-2.9042 2.9042 1.3002 2.9042 2.9042z"/>
   <path transform="translate(668.86 322.83)" d="m-278.55 605.24c0 1.6039-1.3002 2.9042-2.9042 2.9042s-2.9042-1.3002-2.9042-2.9042 1.3002-2.9042 2.9042-2.9042 2.9042 1.3002 2.9042 2.9042z"/>
  </g>
  <g fill="#181818" stroke="#000">
   <path transform="translate(683.18 322.83)" d="m-278.55 605.24c0 1.6039-1.3002 2.9042-2.9042 2.9042s-2.9042-1.3002-2.9042-2.9042 1.3002-2.9042 2.9042-2.9042 2.9042 1.3002 2.9042 2.9042z"/>
   <path transform="translate(691.01 322.83)" d="m-278.55 605.24c0 1.6039-1.3002 2.9042-2.9042 2.9042s-2.9042-1.3002-2.9042-2.9042 1.3002-2.9042 2.9042-2.9042 2.9042 1.3002 2.9042 2.9042z"/>
  </g>
  <path d="m331.24 992.33h18.393v7.1429h-18.393z" fill="#868686" stroke="#000"/>
  <path d="m351.6 989.83h18.393v7.1429h-18.393z" fill="#868686" stroke="#000"/>
  <path d="m371.96 987.51h18.393v7.1429h-18.393z" fill="#868686" stroke="#000"/>
  <path d="m392.31 983.4h18.393v7.1429h-18.393z" fill="#868686" stroke="#000"/>
  <path d="m345.72 54.31h42.679" fill="none" stroke="#000" stroke-width="3"/>
  <path transform="translate(495.16 -472.79)" d="m-123.07 653.6c0 2.6015-2.1089 4.7104-4.7104 4.7104s-4.7104-2.1089-4.7104-4.7104 2.1089-4.7104 4.7104-4.7104 4.7104 2.1089 4.7104 4.7104z" fill="#262626"/>
  <path transform="translate(495.44 -385.31)" d="m-123.07 653.6c0 2.6015-2.1089 4.7104-4.7104 4.7104s-4.7104-2.1089-4.7104-4.7104 2.1089-4.7104 4.7104-4.7104 4.7104 2.1089 4.7104 4.7104z" fill="#262626"/>
  <path transform="translate(495.16 -304.54)" d="m-123.07 653.6c0 2.6015-2.1089 4.7104-4.7104 4.7104s-4.7104-2.1089-4.7104-4.7104 2.1089-4.7104 4.7104-4.7104 4.7104 2.1089 4.7104 4.7104z" fill="#262626"/>
  <path transform="translate(495.16 -233.4)" d="m-123.07 653.6c0 2.6015-2.1089 4.7104-4.7104 4.7104s-4.7104-2.1089-4.7104-4.7104 2.1089-4.7104 4.7104-4.7104 4.7104 2.1089 4.7104 4.7104z" fill="#262626"/>
  <path transform="translate(496.74 -60.275)" d="m-123.07 653.6c0 2.6015-2.1089 4.7104-4.7104 4.7104s-4.7104-2.1089-4.7104-4.7104 2.1089-4.7104 4.7104-4.7104 4.7104 2.1089 4.7104 4.7104z" fill="#262626"/>
  <path transform="translate(496.74 -16.007)" d="m-123.07 653.6c0 2.6015-2.1089 4.7104-4.7104 4.7104s-4.7104-2.1089-4.7104-4.7104 2.1089-4.7104 4.7104-4.7104 4.7104 2.1089 4.7104 4.7104z" fill="#262626"/>
  <path transform="translate(496.74 24.112)" d="m-123.07 653.6c0 2.6015-2.1089 4.7104-4.7104 4.7104s-4.7104-2.1089-4.7104-4.7104 2.1089-4.7104 4.7104-4.7104 4.7104 2.1089 4.7104 4.7104z" fill="#262626"/>
  <path transform="translate(496.74 58.894)" d="m-123.07 653.6c0 2.6015-2.1089 4.7104-4.7104 4.7104s-4.7104-2.1089-4.7104-4.7104 2.1089-4.7104 4.7104-4.7104 4.7104 2.1089 4.7104 4.7104z" fill="#262626"/>
  <path transform="translate(514.92 103.56)" d="m-123.07 653.6c0 2.6015-2.1089 4.7104-4.7104 4.7104s-4.7104-2.1089-4.7104-4.7104 2.1089-4.7104 4.7104-4.7104 4.7104 2.1089 4.7104 4.7104z" fill="#262626"/>
  <path transform="translate(479.35 103.56)" d="m-123.07 653.6c0 2.6015-2.1089 4.7104-4.7104 4.7104s-4.7104-2.1089-4.7104-4.7104 2.1089-4.7104 4.7104-4.7104 4.7104 2.1089 4.7104 4.7104z" fill="#262626"/>
  <path transform="translate(511.27 -138.95)" d="m-123.07 653.6c0 2.6015-2.1089 4.7104-4.7104 4.7104s-4.7104-2.1089-4.7104-4.7104 2.1089-4.7104 4.7104-4.7104 4.7104 2.1089 4.7104 4.7104z" fill="#262626"/>
  <path transform="translate(481.09 -138.95)" d="m-123.07 653.6c0 2.6015-2.1089 4.7104-4.7104 4.7104s-4.7104-2.1089-4.7104-4.7104 2.1089-4.7104 4.7104-4.7104 4.7104 2.1089 4.7104 4.7104z" fill="#262626"/>
  <path d="m344.2 107.34h45.331" fill="none" stroke="#7a7a7a"/>
  <path d="m343.82 156.71h46.972" fill="none" stroke="#7a7a7a"/>
  <path d="m343.19 203.18h48.108" fill="none" stroke="#7a7a7a"/>
  <path d="m342.06 247.38h50.255" fill="none" stroke="#7a7a7a"/>
  <path d="m342.06 289.8h51.644" fill="none" stroke="#7a7a7a"/>
  <path d="m340.92 330.21h53.286" fill="none" stroke="#7a7a7a"/>
  <path d="m340.16 367.46h55.18" fill="none" stroke="#7a7a7a"/>
  <path d="m339.53 403.95h56.442" fill="none" stroke="#7a7a7a"/>
  <path d="m338.9 437.66h57.831" fill="none" stroke="#7a7a7a"/>
  <path d="m338.52 469.74h58.715" fill="none" stroke="#7a7a7a"/>
  <path d="m338.14 500.42h59.978" fill="none" stroke="#7a7a7a"/>
  <path d="m337.26 528.45h61.24" fill="none" stroke="#7a7a7a"/>
  <path d="m337.13 555.98h62.124" fill="none" stroke="#7a7a7a"/>
  <path d="m336.5 580.73h63.261" fill="none" stroke="#7a7a7a"/>
  <path d="m336.25 605.1h64.145" fill="none" stroke="#7a7a7a"/>
  <path d="m335.87 627.07h65.028" fill="none" stroke="#7a7a7a"/>
  <path d="m335.36 647.65h66.165" fill="none" stroke="#7a7a7a"/>
  <path d="m335.11 668.1h66.418" fill="none" stroke="#7a7a7a"/>
  <path d="m334.73 686.67h67.554" fill="none" stroke="#7a7a7a"/>
  <path d="m334.35 704.09h68.185" fill="none" stroke="#7a7a7a"/>
  <path d="m333.97 720.38h68.817" fill="none" stroke="#7a7a7a"/>
  <path d="m333.72 736.16h69.827" fill="none" stroke="#7a7a7a"/>
  <path d="m333.72 750.56h70.079" fill="none" stroke="#7a7a7a"/>
  <path d="m333.47 764.19h70.458" fill="none" stroke="#7a7a7a"/>
  <path d="m340.71 1015.7 10-1006.1" fill="none" stroke="#595959" stroke-linecap="round" stroke-width="4"/>
  <path d="m359.64-46.419 1.7857 1061.8" fill="none" stroke="#595959" stroke-linecap="round" stroke-width="3.2"/>
  <path d="m381.06 1015-9.2857-1075" fill="none" stroke="#595959" stroke-linecap="round" stroke-width="2.6"/>
  <path d="m381.78-6.0621 17.5 1021.1" fill="none" stroke="#595959" stroke-linecap="round" stroke-width="2"/>
  <path transform="translate(616.03 225.91)" d="m-255-272.28c0 4.1421-3.3579 7.5-7.5 7.5s-7.5-3.3579-7.5-7.5 3.3579-7.5 7.5-7.5 7.5 3.3579 7.5 7.5z" fill="#333" stroke="#000" stroke-width=".6"/>
  <path transform="translate(607.87 280.2)" d="m-255-272.28c0 4.1421-3.3579 7.5-7.5 7.5s-7.5-3.3579-7.5-7.5 3.3579-7.5 7.5-7.5 7.5 3.3579 7.5 7.5z" fill="#333" stroke="#000" stroke-width=".6"/>
  <path transform="translate(650.62 265.38)" d="m-255-272.28c0 4.1421-3.3579 7.5-7.5 7.5s-7.5-3.3579-7.5-7.5 3.3579-7.5 7.5-7.5 7.5 3.3579 7.5 7.5z" fill="#333" stroke="#000" stroke-width=".6"/>
  <path transform="translate(640.71 211.81)" d="m-255-272.28c0 4.1421-3.3579 7.5-7.5 7.5s-7.5-3.3579-7.5-7.5 3.3579-7.5 7.5-7.5 7.5 3.3579 7.5 7.5z" fill="#333" stroke="#000" stroke-width=".6"/>
  <path d="m327.06 1034.3c-40.173-3.7409-76.955-15.322-100.28-34.961-44.204-47.766-34.923-86.036-18.214-122.5l11.842-17.422c-40.618 59.755 60.636 169.33 106.65 174.88z" fill="#fff" filter="url(#h)" opacity=".2016"/>
  <path d="m229.28 527.51c8.0953-9.7566 16.19-11.621 24.286 1.4286-61.479-10.548-10.573 114.54 3.9202 195.68-6.7426-27.804-22.355-55.981-36.063-100.68-6.6008-23.551-7.3695-78.26 7.8571-96.429z" fill="#fff" filter="url(#j)" opacity=".3"/>
  <path d="m442.85 726.8c13.905-11.378 30.074-27.129 44.286-31.429 6.9652-1.0313 38.096-3.515 28.571 24.286-11.301 11.075-22.19 24.453-26.429 36.429 26.186-58.163 18.822-77.35-46.428-29.286z" fill="#fff" filter="url(#g)" opacity=".3"/>
  <path transform="translate(617.35 228.72)" d="m-116.93 653.6c0 5.9973-4.8618 10.859-10.859 10.859s-10.859-4.8618-10.859-10.859 4.8618-10.859 10.859-10.859 10.859 4.8618 10.859 10.859z" fill="url(#a)" opacity=".3"/>
  <path transform="translate(626.94 282.76)" d="m-116.93 653.6c0 5.9973-4.8618 10.859-10.859 10.859s-10.859-4.8618-10.859-10.859 4.8618-10.859 10.859-10.859 10.859 4.8618 10.859 10.859z" fill="url(#a)" opacity=".3"/>
  <path transform="translate(603.71 331)" d="m-116.93 653.6c0 5.9973-4.8618 10.859-10.859 10.859s-10.859-4.8618-10.859-10.859 4.8618-10.859 10.859-10.859 10.859 4.8618 10.859 10.859z" fill="url(#a)" opacity=".3"/>
 </g>
</svg>
