<?xml version="1.0" encoding="UTF-8"?>
<svg viewBox="0 0 744.09448819 1052.3622047" xmlns="http://www.w3.org/2000/svg" xmlns:xlink="http://www.w3.org/1999/xlink">
 <defs>
  <filter id="d">
   <feGaussianBlur stdDeviation=".3653"/>
  </filter>
  <filter id="ad">
   <feGaussianBlur stdDeviation="1.2583"/>
  </filter>
  <filter id="b"/>
  <linearGradient id="s">
   <stop offset="0"/>
   <stop stop-opacity="0" offset="1"/>
  </linearGradient>
  <linearGradient id="e">
   <stop stop-color="#fff" offset="0"/>
   <stop stop-color="#fff" stop-opacity="0" offset="1"/>
  </linearGradient>
  <linearGradient id="x">
   <stop stop-color="#1a1a1a" offset="0"/>
   <stop stop-color="#1a1a1a" stop-opacity="0" offset="1"/>
  </linearGradient>
  <linearGradient id="t">
   <stop stop-color="#c87137" offset="0"/>
   <stop stop-color="#c87137" stop-opacity="0" offset="1"/>
  </linearGradient>
  <linearGradient id="ac">
   <stop stop-color="#eaeaea" offset="0"/>
   <stop stop-color="#979797" offset="1"/>
  </linearGradient>
  <linearGradient id="r" x1="756.5" x2="785.96" y1="1722" y2="1715.5" gradientUnits="userSpaceOnUse">
   <stop stop-color="#4d2409" offset="0"/>
   <stop stop-color="#da7e41" offset=".3266"/>
   <stop stop-color="#af886e" offset=".4931"/>
   <stop stop-color="#64300d" offset=".7273"/>
   <stop stop-color="#f3cdb4" offset="1"/>
  </linearGradient>
  <linearGradient id="p" x1="762.77" x2="767.23" y1="1698.6" y2="1697.6" gradientUnits="userSpaceOnUse">
   <stop stop-color="#a40" offset="0"/>
   <stop stop-color="#a40" stop-opacity="0" offset="1"/>
  </linearGradient>
  <linearGradient id="o" x1="770.18" x2="765.98" y1="1691.3" y2="1692.3" gradientUnits="userSpaceOnUse">
   <stop stop-color="#ffb380" offset="0"/>
   <stop stop-color="#ffb380" stop-opacity="0" offset="1"/>
  </linearGradient>
  <linearGradient id="am" x1="-796.76" x2="-816.96" y1="1731.4" y2="1734.5" gradientUnits="userSpaceOnUse">
   <stop stop-color="#2b0000" offset="0"/>
   <stop stop-color="#2b0000" stop-opacity="0" offset="1"/>
  </linearGradient>
  <linearGradient id="aj" x1="144.59" x2="292.44" y1="2640.8" y2="2693.3" gradientUnits="userSpaceOnUse">
   <stop stop-color="#826060" offset="0"/>
   <stop stop-color="#121212" offset=".25"/>
   <stop stop-color="#e8dbdb" offset=".5"/>
   <stop stop-color="#e12a2a" offset="1"/>
  </linearGradient>
  <linearGradient id="q" x1="788.87" x2="772.45" y1="1710.9" y2="1718.6" gradientUnits="userSpaceOnUse" xlink:href="#e"/>
  <linearGradient id="n" x1="743.98" x2="757.11" y1="1694.1" y2="1690.3" gradientUnits="userSpaceOnUse" xlink:href="#s"/>
  <linearGradient id="m" x1="761.15" x2="754.84" y1="1687.7" y2="1690" gradientUnits="userSpaceOnUse" xlink:href="#e"/>
  <linearGradient id="l" x1="666.37" x2="689.98" y1="1723.4" y2="1723.2" gradientUnits="userSpaceOnUse" xlink:href="#x"/>
  <linearGradient id="k" x1="722.27" x2="670.59" y1="1716.2" y2="1722.8" gradientUnits="userSpaceOnUse" xlink:href="#e"/>
  <linearGradient id="ab" x1="610.64" x2="597" y1="1440.9" y2="1450.1" gradientUnits="userSpaceOnUse" xlink:href="#s"/>
  <linearGradient id="aa" x1="595.23" x2="595.48" y1="1466.8" y2="1460" gradientUnits="userSpaceOnUse" xlink:href="#t"/>
  <linearGradient id="z" x1="580.84" x2="581.6" y1="1493.5" y2="1485.5" gradientUnits="userSpaceOnUse" xlink:href="#t"/>
  <linearGradient id="y" x2="0" y1="1519.3" y2="1510.7" gradientUnits="userSpaceOnUse" xlink:href="#t"/>
  <linearGradient id="al" x1="156.25" x2="320.8" y1="2429.5" y2="2373.8" gradientUnits="userSpaceOnUse" xlink:href="#e"/>
  <linearGradient id="ak" x1="-646.5" x2="-931.36" y1="2547.4" y2="2462.5" gradientUnits="userSpaceOnUse" xlink:href="#s"/>
  <linearGradient id="a" x1="523.01" x2="523.13" y1="1763.9" y2="1760.1" gradientUnits="userSpaceOnUse" xlink:href="#x"/>
  <radialGradient id="j" cx="774.2" cy="1709.8" r="13.094" gradientTransform="matrix(.98458 -.30541 .08078 .2604 -126.39 1500.9)" gradientUnits="userSpaceOnUse">
   <stop stop-color="#502d16" stop-opacity="0" offset="0"/>
   <stop stop-color="#502d16" offset="1"/>
  </radialGradient>
  <radialGradient id="i" cx="782.64" cy="1707.5" r="13.094" gradientTransform="matrix(.51926 -.04773 .03575 .38896 312.29 1082.9)" gradientUnits="userSpaceOnUse">
   <stop stop-color="#e9c6af" offset="0"/>
   <stop stop-color="#e9c6af" stop-opacity="0" offset="1"/>
  </radialGradient>
  <radialGradient id="ai" cx="-1129.3" cy="2573.4" r="333.19" gradientTransform="matrix(.84153 -.09498 .17886 1.5848 -658.02 -1631.8)" gradientUnits="userSpaceOnUse">
   <stop stop-color="#fca" offset="0"/>
   <stop stop-color="#fca" stop-opacity="0" offset="1"/>
  </radialGradient>
  <radialGradient id="ah" cx="451.45" cy="2082.9" r="143.04" gradientTransform="matrix(.2757 .09503 -1.582 4.5896 2163.3 -7429.7)" gradientUnits="userSpaceOnUse">
   <stop stop-color="#ff7f2a" offset="0"/>
   <stop stop-color="#ff7f2a" stop-opacity="0" offset="1"/>
  </radialGradient>
  <radialGradient id="ag" cx="-741.66" cy="1786.9" r="34.219" gradientTransform="matrix(1.5695 -.00085626 4.2277e-5 .07749 422.27 1647.8)" gradientUnits="userSpaceOnUse">
   <stop stop-color="#e6e6e6" offset="0"/>
   <stop stop-color="#e6e6e6" stop-opacity="0" offset="1"/>
  </radialGradient>
  <radialGradient id="af" cx="213.17" cy="2637.1" r="142.52" gradientTransform="matrix(1.4607 -.06025 .01883 .45647 -147.86 1457)" gradientUnits="userSpaceOnUse">
   <stop stop-color="#c8b7b7" offset="0"/>
   <stop stop-color="#c8b7b7" stop-opacity="0" offset="1"/>
  </radialGradient>
  <radialGradient id="ae" cx="212.5" cy="2643.3" r="66.786" gradientTransform="matrix(5.1661 1.6338 -.09085 .28729 -645.14 1536.7)" gradientUnits="userSpaceOnUse">
   <stop stop-color="#f9f9f9" offset="0"/>
   <stop stop-color="#706d6d" offset=".4745"/>
   <stop stop-color="#f21919" offset=".6122"/>
   <stop stop-color="#460606" offset="1"/>
  </radialGradient>
  <radialGradient id="h" cx="768.09" cy="1694.5" r="4.9688" gradientTransform="matrix(.35084 -.07469 1.0331 4.853 -1251.9 -6471.4)" gradientUnits="userSpaceOnUse" xlink:href="#e"/>
  <radialGradient id="g" cx="625.51" cy="1680.7" r="4.1071" gradientTransform="matrix(1.1923 -.18261 .09633 .51441 -282.19 930.29)" gradientUnits="userSpaceOnUse" xlink:href="#ac"/>
  <radialGradient id="f" cx="623.57" cy="1680.6" r="4.1071" gradientTransform="matrix(1 0 0 .52174 0 803.75)" gradientUnits="userSpaceOnUse" xlink:href="#e"/>
  <radialGradient id="c" cx="767.97" cy="1686" r="3.067" gradientTransform="matrix(-1.7617 2.3423 -.45052 -.33884 2881.6 472.21)" gradientUnits="userSpaceOnUse" xlink:href="#ac"/>
  <radialGradient id="w" cx="596.8" cy="1455" r="9.4389" gradientTransform="matrix(1.9544 -.2242 .04739 .4131 -638.51 989.75)" gradientUnits="userSpaceOnUse" xlink:href="#e"/>
  <radialGradient id="v" cx="584.31" cy="1481.4" r="9.0327" gradientTransform="matrix(1.5569 -.16321 .0493 .47032 -398.43 880.62)" gradientUnits="userSpaceOnUse" xlink:href="#e"/>
  <radialGradient id="u" cx="570.32" cy="1505.8" r="8.9311" gradientTransform="matrix(1.7651 -.328 .08337 .44867 -561.89 1017.9)" gradientUnits="userSpaceOnUse" xlink:href="#e"/>
 </defs>
 <g transform="matrix(.70604 0 0 .70604 1126 -1100.2)">
  <g transform="matrix(-.98124 .1928 .1928 .98124 -440.01 -140.52)">
   <g transform="translate(-10.607 -1.5152)">
    <path d="m781.01 1706.9c-6.7896-1.2217-16.526 0.7281-24.286 8.9286-0.75556 1.4881-0.90955 2.9762-0.71429 4.4643 0.27327 4.5644 0.85879 6.3185 1.6072 6.6071 12.206 5.5326 28.065-5.8578 28.214-9.8214 0.0236-2.1013-1.0864-4.7694-1.9643-7.3215-0.95238-2.0682-1.9048-2.0774-2.8572-2.8571z" fill="url(#r)"/>
    <path d="m776.91 1706.5c-1.1094 0.011-2.2592 0.1065-3.4375 0.2813 0.62235 6.614 1.4621 13.008 3.4375 18.344 5.1551-2.6307 8.8658-6.2257 8.9375-8.125 0.0236-2.1013-1.0908-4.7603-1.9688-7.3124-0.95238-2.0682-1.9226-2.0641-2.875-2.8438-1.273-0.2291-2.6459-0.358-4.0938-0.3438z" fill="url(#q)"/>
    <path d="m776.91 1706.5c-6.2739 0.062-13.883 2.5871-20.188 9.25-0.13167 0.2594-0.24729 0.522-0.34375 0.7813 9.0688 1.1662 18.683-3.0039 26.188-8.625-0.52144-0.4293-1.0411-0.6356-1.5625-1.0625-1.273-0.2291-2.6459-0.358-4.0938-0.3438z" fill="#d38d5f"/>
    <path d="m776.91 1706.5c-6.2739 0.062-13.883 2.5871-20.188 9.25-0.13167 0.2594-0.24729 0.522-0.34375 0.7813 9.0688 1.1662 18.683-3.0039 26.188-8.625-0.52144-0.4293-1.0411-0.6356-1.5625-1.0625-1.273-0.2291-2.6459-0.358-4.0938-0.3438z" fill="url(#j)"/>
    <path d="m776.91 1706.5c-6.2739 0.062-13.883 2.5871-20.188 9.25-0.13167 0.2594-0.24729 0.522-0.34375 0.7813 9.0688 1.1662 18.683-3.0039 26.188-8.625-0.52144-0.4293-1.0411-0.6356-1.5625-1.0625-1.273-0.2291-2.6459-0.358-4.0938-0.3438z" fill="url(#i)"/>
    <path d="m759.04 1678.1 6.4286 33.214c2.619 0.7422 5.2381 1.8005 7.8572-1.6072l-6.7857-32.857c-1.951 0.4608-4.2057 1.237-7.5 1.25z" fill="#f95"/>
    <path d="m759.04 1678.1 6.4286 33.214c2.619 0.7422 5.2381 1.8005 7.8572-1.6072l-6.7857-32.857c-1.951 0.4608-4.2057 1.237-7.5 1.25z" fill="url(#p)"/>
    <path d="m759.04 1678.1 6.4286 33.214c2.619 0.7422 5.2381 1.8005 7.8572-1.6072l-6.7857-32.857c-1.951 0.4608-4.2057 1.237-7.5 1.25z" fill="url(#o)"/>
    <path d="m766.12 1677c-0.9129 0.2278-1.8689 0.492-3 0.7187l7.0938 34.25c0.94215-0.2242 1.9016-0.7618 2.8438-1.875l-6.9375-33.094z" fill="url(#h)"/>
    <path transform="matrix(1.1304 0 0 1.25 57.619 -424.04)" d="m627.68 1680.6c0 1.1835-1.8388 2.1429-4.1071 2.1429s-4.1071-0.9594-4.1071-2.1429 1.8388-2.1428 4.1071-2.1428c1.9155 0 3.5767 0.6908 4.0038 1.6651" fill="url(#g)"/>
    <path transform="matrix(1.1304 0 0 1.25 57.53 -425.11)" d="m627.68 1680.6c0 1.1835-1.8388 2.1429-4.1071 2.1429s-4.1071-0.9594-4.1071-2.1429 1.8388-2.1428 4.1071-2.1428c1.9155 0 3.5767 0.6908 4.0038 1.6651" fill="#ccc"/>
    <path transform="matrix(1.1304 0 0 1.25 57.53 -425.11)" d="m627.68 1680.6c0 1.1835-1.8388 2.1429-4.1071 2.1429s-4.1071-0.9594-4.1071-2.1429 1.8388-2.1428 4.1071-2.1428c1.9155 0 3.5767 0.6908 4.0038 1.6651" fill="url(#f)"/>
    <path d="m770.67 1697.2c-0.77618 3.2669-3.5213 3.9904-5.5357 4.3304" fill="none" filter="url(#b)" stroke="#1a1a1a"/>
    <path d="m770.67 1696.9c-0.77618 3.2669-3.5213 3.9904-5.5357 4.3304" fill="none" stroke="url(#c)"/>
    <g transform="translate(.66964 2.6339)" fill="none">
     <path d="m770.67 1697.2c-0.77618 3.2669-3.5213 3.9904-5.5357 4.3304" filter="url(#b)" stroke="#1a1a1a"/>
     <path d="m770.67 1696.9c-0.77618 3.2669-3.5213 3.9904-5.5357 4.3304" stroke="url(#c)"/>
    </g>
   </g>
   <path transform="matrix(.94318 0 0 1 42.549 0)" d="m748.78 1688c5.8777-1.0828 7.9272-2.8036 9.849-4.5457l1.5152 8.8388c-2.5982 4.4455-6.1324 3.2752-9.3439 4.0406z" fill="#1a1a1a" filter="url(#b)"/>
   <path d="m748.52 1687.2c5.8777-1.0828 7.9272-2.8036 9.849-4.5457l1.5152 8.8388c-2.5982 4.4455-6.1324 3.2752-9.3439 4.0406z" fill="#ccc"/>
   <path d="m748.52 1687.2c5.8777-1.0828 7.9272-2.8036 9.849-4.5457l1.5152 8.8388c-2.5982 4.4455-6.1324 3.2752-9.3439 4.0406z" fill="url(#n)"/>
   <path d="m748.52 1687.2c5.8777-1.0828 7.9272-2.8036 9.849-4.5457l1.5152 8.8388c-2.5982 4.4455-6.1324 3.2752-9.3439 4.0406z" fill="url(#m)"/>
  </g>
  <g transform="matrix(-.98124 .1928 .1928 .98124 -468.92 -172.2)">
   <path transform="matrix(.37436 0 0 .39048 475.54 1056.8)" d="m702.14 1719.5c0 10.355-7.795 18.75-17.411 18.75s-17.411-8.3947-17.411-18.75 7.795-18.75 17.411-18.75c9.4622 0 17.192 8.1383 17.406 18.326" fill="#b3b3b3"/>
   <path transform="matrix(.37436 0 0 .39048 475.54 1056.8)" d="m702.14 1719.5c0 10.355-7.795 18.75-17.411 18.75s-17.411-8.3947-17.411-18.75 7.795-18.75 17.411-18.75c9.4622 0 17.192 8.1383 17.406 18.326" fill="url(#l)"/>
   <path transform="matrix(.1641 0 0 .27143 623.17 1261.4)" d="m702.14 1719.5c0 10.355-7.795 18.75-17.411 18.75s-17.411-8.3947-17.411-18.75 7.795-18.75 17.411-18.75c9.4622 0 17.192 8.1383 17.406 18.326" fill="#808080"/>
   <g transform="translate(0,.35714)" fill="#ccc" stroke="#ccc">
    <path d="m731.74 1721.3 2.8125 1.0268"/>
    <path d="m729.38 1722.6 3.8393 1.4286"/>
    <path d="m727.68 1724.6 4.8214 1.0268"/>
    <path d="m726.52 1727.2 5.7143 0.089"/>
    <path d="m726.7 1729.9 5.4464-0.7589"/>
    <path d="m727.63 1732 4.9107-1.4732"/>
    <path d="m729.29 1734 3.75-2.0536"/>
    <path d="m731.52 1735 2.3661-1.8304"/>
    <path d="m734.24 1734.7 0.66965-0.8483"/>
    <path d="m734.24 1721 1.4286 1.2501"/>
   </g>
   <g fill="#333" stroke="#4d4d4d">
    <path d="m731.74 1721.3 2.8125 1.0268"/>
    <path d="m729.38 1722.6 3.8393 1.4286"/>
    <path d="m727.68 1724.6 4.8214 1.0268"/>
    <path d="m726.52 1727.2 5.7143 0.089"/>
    <path d="m726.7 1729.9 5.4464-0.7589"/>
    <path d="m727.63 1732 4.9107-1.4732"/>
    <path d="m729.29 1734 3.75-2.0536"/>
    <path d="m731.52 1735 2.3661-1.8304"/>
    <path d="m734.24 1734.7 0.66965-0.8483"/>
    <path d="m734.24 1721 1.4286 1.2501"/>
   </g>
   <path transform="matrix(.1641 0 0 .27143 623.17 1261.4)" d="m684.72 1703.2c-8.195 0-14.969 7.1814-14.969 16.312s6.7737 16.312 14.969 16.312c8.1663 0 14.953-7.1382 15-16.219v-0.094l-0.0312-0.2188a2.4411 2.4411 0 0 1 0 -0.125c-0.18874-8.9809-6.9093-15.969-14.969-15.969z" fill="url(#k)"/>
  </g>
  <g transform="matrix(-.98124 .1928 .1928 .98124 -452.64 -114.26)">
   <g transform="translate(-10.607 -1.5152)">
    <path d="m781.01 1706.9c-6.7896-1.2217-16.526 0.7281-24.286 8.9286-0.75556 1.4881-0.90955 2.9762-0.71429 4.4643 0.27327 4.5644 0.85879 6.3185 1.6072 6.6071 12.206 5.5326 28.065-5.8578 28.214-9.8214 0.0236-2.1013-1.0864-4.7694-1.9643-7.3215-0.95238-2.0682-1.9048-2.0774-2.8572-2.8571z" fill="url(#r)"/>
    <path d="m776.91 1706.5c-1.1094 0.011-2.2592 0.1065-3.4375 0.2813 0.62235 6.614 1.4621 13.008 3.4375 18.344 5.1551-2.6307 8.8658-6.2257 8.9375-8.125 0.0236-2.1013-1.0908-4.7603-1.9688-7.3124-0.95238-2.0682-1.9226-2.0641-2.875-2.8438-1.273-0.2291-2.6459-0.358-4.0938-0.3438z" fill="url(#q)"/>
    <path d="m776.91 1706.5c-6.2739 0.062-13.883 2.5871-20.188 9.25-0.13167 0.2594-0.24729 0.522-0.34375 0.7813 9.0688 1.1662 18.683-3.0039 26.188-8.625-0.52144-0.4293-1.0411-0.6356-1.5625-1.0625-1.273-0.2291-2.6459-0.358-4.0938-0.3438z" fill="#d38d5f"/>
    <path d="m776.91 1706.5c-6.2739 0.062-13.883 2.5871-20.188 9.25-0.13167 0.2594-0.24729 0.522-0.34375 0.7813 9.0688 1.1662 18.683-3.0039 26.188-8.625-0.52144-0.4293-1.0411-0.6356-1.5625-1.0625-1.273-0.2291-2.6459-0.358-4.0938-0.3438z" fill="url(#j)"/>
    <path d="m776.91 1706.5c-6.2739 0.062-13.883 2.5871-20.188 9.25-0.13167 0.2594-0.24729 0.522-0.34375 0.7813 9.0688 1.1662 18.683-3.0039 26.188-8.625-0.52144-0.4293-1.0411-0.6356-1.5625-1.0625-1.273-0.2291-2.6459-0.358-4.0938-0.3438z" fill="url(#i)"/>
    <path d="m759.04 1678.1 6.4286 33.214c2.619 0.7422 5.2381 1.8005 7.8572-1.6072l-6.7857-32.857c-1.951 0.4608-4.2057 1.237-7.5 1.25z" fill="#f95"/>
    <path d="m759.04 1678.1 6.4286 33.214c2.619 0.7422 5.2381 1.8005 7.8572-1.6072l-6.7857-32.857c-1.951 0.4608-4.2057 1.237-7.5 1.25z" fill="url(#p)"/>
    <path d="m759.04 1678.1 6.4286 33.214c2.619 0.7422 5.2381 1.8005 7.8572-1.6072l-6.7857-32.857c-1.951 0.4608-4.2057 1.237-7.5 1.25z" fill="url(#o)"/>
    <path d="m766.12 1677c-0.9129 0.2278-1.8689 0.492-3 0.7187l7.0938 34.25c0.94215-0.2242 1.9016-0.7618 2.8438-1.875l-6.9375-33.094z" fill="url(#h)"/>
    <path transform="matrix(1.1304 0 0 1.25 57.619 -424.04)" d="m627.68 1680.6c0 1.1835-1.8388 2.1429-4.1071 2.1429s-4.1071-0.9594-4.1071-2.1429 1.8388-2.1428 4.1071-2.1428c1.9155 0 3.5767 0.6908 4.0038 1.6651" fill="url(#g)"/>
    <path transform="matrix(1.1304 0 0 1.25 57.53 -425.11)" d="m627.68 1680.6c0 1.1835-1.8388 2.1429-4.1071 2.1429s-4.1071-0.9594-4.1071-2.1429 1.8388-2.1428 4.1071-2.1428c1.9155 0 3.5767 0.6908 4.0038 1.6651" fill="#ccc"/>
    <path transform="matrix(1.1304 0 0 1.25 57.53 -425.11)" d="m627.68 1680.6c0 1.1835-1.8388 2.1429-4.1071 2.1429s-4.1071-0.9594-4.1071-2.1429 1.8388-2.1428 4.1071-2.1428c1.9155 0 3.5767 0.6908 4.0038 1.6651" fill="url(#f)"/>
    <path d="m770.67 1697.2c-0.77618 3.2669-3.5213 3.9904-5.5357 4.3304" fill="none" filter="url(#b)" stroke="#1a1a1a"/>
    <path d="m770.67 1696.9c-0.77618 3.2669-3.5213 3.9904-5.5357 4.3304" fill="none" stroke="url(#c)"/>
    <g transform="translate(.66964 2.6339)" fill="none">
     <path d="m770.67 1697.2c-0.77618 3.2669-3.5213 3.9904-5.5357 4.3304" filter="url(#b)" stroke="#1a1a1a"/>
     <path d="m770.67 1696.9c-0.77618 3.2669-3.5213 3.9904-5.5357 4.3304" stroke="url(#c)"/>
    </g>
   </g>
   <path transform="matrix(.94318 0 0 1 42.549 0)" d="m748.78 1688c5.8777-1.0828 7.9272-2.8036 9.849-4.5457l1.5152 8.8388c-2.5982 4.4455-6.1324 3.2752-9.3439 4.0406z" fill="#1a1a1a" filter="url(#b)"/>
   <path d="m748.52 1687.2c5.8777-1.0828 7.9272-2.8036 9.849-4.5457l1.5152 8.8388c-2.5982 4.4455-6.1324 3.2752-9.3439 4.0406z" fill="#ccc"/>
   <path d="m748.52 1687.2c5.8777-1.0828 7.9272-2.8036 9.849-4.5457l1.5152 8.8388c-2.5982 4.4455-6.1324 3.2752-9.3439 4.0406z" fill="url(#n)"/>
   <path d="m748.52 1687.2c5.8777-1.0828 7.9272-2.8036 9.849-4.5457l1.5152 8.8388c-2.5982 4.4455-6.1324 3.2752-9.3439 4.0406z" fill="url(#m)"/>
  </g>
  <g transform="matrix(-.98124 .1928 .1928 .98124 -481.55 -145.93)">
   <path transform="matrix(.37436 0 0 .39048 475.54 1056.8)" d="m702.14 1719.5c0 10.355-7.795 18.75-17.411 18.75s-17.411-8.3947-17.411-18.75 7.795-18.75 17.411-18.75c9.4622 0 17.192 8.1383 17.406 18.326" fill="#b3b3b3"/>
   <path transform="matrix(.37436 0 0 .39048 475.54 1056.8)" d="m702.14 1719.5c0 10.355-7.795 18.75-17.411 18.75s-17.411-8.3947-17.411-18.75 7.795-18.75 17.411-18.75c9.4622 0 17.192 8.1383 17.406 18.326" fill="url(#l)"/>
   <path transform="matrix(.1641 0 0 .27143 623.17 1261.4)" d="m702.14 1719.5c0 10.355-7.795 18.75-17.411 18.75s-17.411-8.3947-17.411-18.75 7.795-18.75 17.411-18.75c9.4622 0 17.192 8.1383 17.406 18.326" fill="#808080"/>
   <g transform="translate(0,.35714)" fill="#ccc" stroke="#ccc">
    <path d="m731.74 1721.3 2.8125 1.0268"/>
    <path d="m729.38 1722.6 3.8393 1.4286"/>
    <path d="m727.68 1724.6 4.8214 1.0268"/>
    <path d="m726.52 1727.2 5.7143 0.089"/>
    <path d="m726.7 1729.9 5.4464-0.7589"/>
    <path d="m727.63 1732 4.9107-1.4732"/>
    <path d="m729.29 1734 3.75-2.0536"/>
    <path d="m731.52 1735 2.3661-1.8304"/>
    <path d="m734.24 1734.7 0.66965-0.8483"/>
    <path d="m734.24 1721 1.4286 1.2501"/>
   </g>
   <g fill="#333" stroke="#4d4d4d">
    <path d="m731.74 1721.3 2.8125 1.0268"/>
    <path d="m729.38 1722.6 3.8393 1.4286"/>
    <path d="m727.68 1724.6 4.8214 1.0268"/>
    <path d="m726.52 1727.2 5.7143 0.089"/>
    <path d="m726.7 1729.9 5.4464-0.7589"/>
    <path d="m727.63 1732 4.9107-1.4732"/>
    <path d="m729.29 1734 3.75-2.0536"/>
    <path d="m731.52 1735 2.3661-1.8304"/>
    <path d="m734.24 1734.7 0.66965-0.8483"/>
    <path d="m734.24 1721 1.4286 1.2501"/>
   </g>
   <path transform="matrix(.1641 0 0 .27143 623.17 1261.4)" d="m684.72 1703.2c-8.195 0-14.969 7.1814-14.969 16.312s6.7737 16.312 14.969 16.312c8.1663 0 14.953-7.1382 15-16.219v-0.094l-0.0312-0.2188a2.4411 2.4411 0 0 1 0 -0.125c-0.18874-8.9809-6.9093-15.969-14.969-15.969z" fill="url(#k)"/>
  </g>
  <g transform="matrix(-.98124 .1928 .1928 .98124 -468.3 -90.014)">
   <g transform="translate(-10.607 -1.5152)">
    <path d="m781.01 1706.9c-6.7896-1.2217-16.526 0.7281-24.286 8.9286-0.75556 1.4881-0.90955 2.9762-0.71429 4.4643 0.27327 4.5644 0.85879 6.3185 1.6072 6.6071 12.206 5.5326 28.065-5.8578 28.214-9.8214 0.0236-2.1013-1.0864-4.7694-1.9643-7.3215-0.95238-2.0682-1.9048-2.0774-2.8572-2.8571z" fill="url(#r)"/>
    <path d="m776.91 1706.5c-1.1094 0.011-2.2592 0.1065-3.4375 0.2813 0.62235 6.614 1.4621 13.008 3.4375 18.344 5.1551-2.6307 8.8658-6.2257 8.9375-8.125 0.0236-2.1013-1.0908-4.7603-1.9688-7.3124-0.95238-2.0682-1.9226-2.0641-2.875-2.8438-1.273-0.2291-2.6459-0.358-4.0938-0.3438z" fill="url(#q)"/>
    <path d="m776.91 1706.5c-6.2739 0.062-13.883 2.5871-20.188 9.25-0.13167 0.2594-0.24729 0.522-0.34375 0.7813 9.0688 1.1662 18.683-3.0039 26.188-8.625-0.52144-0.4293-1.0411-0.6356-1.5625-1.0625-1.273-0.2291-2.6459-0.358-4.0938-0.3438z" fill="#d38d5f"/>
    <path d="m776.91 1706.5c-6.2739 0.062-13.883 2.5871-20.188 9.25-0.13167 0.2594-0.24729 0.522-0.34375 0.7813 9.0688 1.1662 18.683-3.0039 26.188-8.625-0.52144-0.4293-1.0411-0.6356-1.5625-1.0625-1.273-0.2291-2.6459-0.358-4.0938-0.3438z" fill="url(#j)"/>
    <path d="m776.91 1706.5c-6.2739 0.062-13.883 2.5871-20.188 9.25-0.13167 0.2594-0.24729 0.522-0.34375 0.7813 9.0688 1.1662 18.683-3.0039 26.188-8.625-0.52144-0.4293-1.0411-0.6356-1.5625-1.0625-1.273-0.2291-2.6459-0.358-4.0938-0.3438z" fill="url(#i)"/>
    <path d="m759.04 1678.1 6.4286 33.214c2.619 0.7422 5.2381 1.8005 7.8572-1.6072l-6.7857-32.857c-1.951 0.4608-4.2057 1.237-7.5 1.25z" fill="#f95"/>
    <path d="m759.04 1678.1 6.4286 33.214c2.619 0.7422 5.2381 1.8005 7.8572-1.6072l-6.7857-32.857c-1.951 0.4608-4.2057 1.237-7.5 1.25z" fill="url(#p)"/>
    <path d="m759.04 1678.1 6.4286 33.214c2.619 0.7422 5.2381 1.8005 7.8572-1.6072l-6.7857-32.857c-1.951 0.4608-4.2057 1.237-7.5 1.25z" fill="url(#o)"/>
    <path d="m766.12 1677c-0.9129 0.2278-1.8689 0.492-3 0.7187l7.0938 34.25c0.94215-0.2242 1.9016-0.7618 2.8438-1.875l-6.9375-33.094z" fill="url(#h)"/>
    <path transform="matrix(1.1304 0 0 1.25 57.619 -424.04)" d="m627.68 1680.6c0 1.1835-1.8388 2.1429-4.1071 2.1429s-4.1071-0.9594-4.1071-2.1429 1.8388-2.1428 4.1071-2.1428c1.9155 0 3.5767 0.6908 4.0038 1.6651" fill="url(#g)"/>
    <path transform="matrix(1.1304 0 0 1.25 57.53 -425.11)" d="m627.68 1680.6c0 1.1835-1.8388 2.1429-4.1071 2.1429s-4.1071-0.9594-4.1071-2.1429 1.8388-2.1428 4.1071-2.1428c1.9155 0 3.5767 0.6908 4.0038 1.6651" fill="#ccc"/>
    <path transform="matrix(1.1304 0 0 1.25 57.53 -425.11)" d="m627.68 1680.6c0 1.1835-1.8388 2.1429-4.1071 2.1429s-4.1071-0.9594-4.1071-2.1429 1.8388-2.1428 4.1071-2.1428c1.9155 0 3.5767 0.6908 4.0038 1.6651" fill="url(#f)"/>
    <path d="m770.67 1697.2c-0.77618 3.2669-3.5213 3.9904-5.5357 4.3304" fill="none" filter="url(#b)" stroke="#1a1a1a"/>
    <path d="m770.67 1696.9c-0.77618 3.2669-3.5213 3.9904-5.5357 4.3304" fill="none" stroke="url(#c)"/>
    <g transform="translate(.66964 2.6339)" fill="none">
     <path d="m770.67 1697.2c-0.77618 3.2669-3.5213 3.9904-5.5357 4.3304" filter="url(#b)" stroke="#1a1a1a"/>
     <path d="m770.67 1696.9c-0.77618 3.2669-3.5213 3.9904-5.5357 4.3304" stroke="url(#c)"/>
    </g>
   </g>
   <path transform="matrix(.94318 0 0 1 42.549 0)" d="m748.78 1688c5.8777-1.0828 7.9272-2.8036 9.849-4.5457l1.5152 8.8388c-2.5982 4.4455-6.1324 3.2752-9.3439 4.0406z" fill="#1a1a1a" filter="url(#b)"/>
   <path d="m748.52 1687.2c5.8777-1.0828 7.9272-2.8036 9.849-4.5457l1.5152 8.8388c-2.5982 4.4455-6.1324 3.2752-9.3439 4.0406z" fill="#ccc"/>
   <path d="m748.52 1687.2c5.8777-1.0828 7.9272-2.8036 9.849-4.5457l1.5152 8.8388c-2.5982 4.4455-6.1324 3.2752-9.3439 4.0406z" fill="url(#n)"/>
   <path d="m748.52 1687.2c5.8777-1.0828 7.9272-2.8036 9.849-4.5457l1.5152 8.8388c-2.5982 4.4455-6.1324 3.2752-9.3439 4.0406z" fill="url(#m)"/>
  </g>
  <g transform="matrix(-.98124 .1928 .1928 .98124 -497.21 -121.69)">
   <path transform="matrix(.37436 0 0 .39048 475.54 1056.8)" d="m702.14 1719.5c0 10.355-7.795 18.75-17.411 18.75s-17.411-8.3947-17.411-18.75 7.795-18.75 17.411-18.75c9.4622 0 17.192 8.1383 17.406 18.326" fill="#b3b3b3"/>
   <path transform="matrix(.37436 0 0 .39048 475.54 1056.8)" d="m702.14 1719.5c0 10.355-7.795 18.75-17.411 18.75s-17.411-8.3947-17.411-18.75 7.795-18.75 17.411-18.75c9.4622 0 17.192 8.1383 17.406 18.326" fill="url(#l)"/>
   <path transform="matrix(.1641 0 0 .27143 623.17 1261.4)" d="m702.14 1719.5c0 10.355-7.795 18.75-17.411 18.75s-17.411-8.3947-17.411-18.75 7.795-18.75 17.411-18.75c9.4622 0 17.192 8.1383 17.406 18.326" fill="#808080"/>
   <g transform="translate(0,.35714)" fill="#ccc" stroke="#ccc">
    <path d="m731.74 1721.3 2.8125 1.0268"/>
    <path d="m729.38 1722.6 3.8393 1.4286"/>
    <path d="m727.68 1724.6 4.8214 1.0268"/>
    <path d="m726.52 1727.2 5.7143 0.089"/>
    <path d="m726.7 1729.9 5.4464-0.7589"/>
    <path d="m727.63 1732 4.9107-1.4732"/>
    <path d="m729.29 1734 3.75-2.0536"/>
    <path d="m731.52 1735 2.3661-1.8304"/>
    <path d="m734.24 1734.7 0.66965-0.8483"/>
    <path d="m734.24 1721 1.4286 1.2501"/>
   </g>
   <g fill="#333" stroke="#4d4d4d">
    <path d="m731.74 1721.3 2.8125 1.0268"/>
    <path d="m729.38 1722.6 3.8393 1.4286"/>
    <path d="m727.68 1724.6 4.8214 1.0268"/>
    <path d="m726.52 1727.2 5.7143 0.089"/>
    <path d="m726.7 1729.9 5.4464-0.7589"/>
    <path d="m727.63 1732 4.9107-1.4732"/>
    <path d="m729.29 1734 3.75-2.0536"/>
    <path d="m731.52 1735 2.3661-1.8304"/>
    <path d="m734.24 1734.7 0.66965-0.8483"/>
    <path d="m734.24 1721 1.4286 1.2501"/>
   </g>
   <path transform="matrix(.1641 0 0 .27143 623.17 1261.4)" d="m684.72 1703.2c-8.195 0-14.969 7.1814-14.969 16.312s6.7737 16.312 14.969 16.312c8.1663 0 14.953-7.1382 15-16.219v-0.094l-0.0312-0.2188a2.4411 2.4411 0 0 1 0 -0.125c-0.18874-8.9809-6.9093-15.969-14.969-15.969z" fill="url(#k)"/>
  </g>
  <path d="m-1011.7 2138.3c43.009 0.4972 83.912 12.584 124.25 27.779 39.637 17.286 72.649 42.917 76.267 105.56 3.89 47.778-29.377 99.273-65.155 151.02-47.09 60.244-26.651 111.68-14.142 164.15 25.261 67.97 29.958 138.78 16.162 212.13-17.799 86.107-63.389 134.5-118.69 169.71-61.46 32.886-131.53 30.371-205.06 13.637-99.442-27.341-180.2-76.032-241.93-146.47-53.942-81.81-43.334-165.52-6.0609-250.01 30.09-61.624 73.409-95.318 115.16-132.33 53.026-38.884 74.713-84.196 75.256-133.85 6.621-80.186 30.198-112.8 55.558-140.41 34.482-30.302 79.389-48.758 143.44-45.457z" fill="#cc5606"/>
  <path d="m-827.04 1740.7-1.4817 13.572 32.227-13.214 57.416-97.5-5.5564-18.571-57.416 96.786c-12.834 2.0308-19.694 9.822-25.189 18.928z" fill="#500"/>
  <path d="m-823.16 1740c4.7025-8.7499 11.165-15.739 22.5-17.857l56.429-96.786c-5.7969-2.5686-5.6939-6.6122-3.9286-11.071-8.9018 0.4353-16.589-1.615-20.246-10.953-2.2794-5.8213-13.767-3.4515-19.994 0.2027-9.7886 5.7437-18.622 14.975-33.331 12.179-3.5969 8.9966-10.897 10.586-18.214 12.143l-50.357 91.786c2.4207 6.2374 2.8113 11.737 0 16.071z" fill="#a00"/>
  <g transform="translate(-1425.4 196.53)">
   <path d="m605.34375,1430.0312c-1.00527-.031-1.99796.03-3,.1563-4.84306.6128-9.80322,3.1093-13.40625,7.5937l-.0312.031c-.0822.1004-.25697.3264-.3125.4063-.0603.087-.22953.3767-.28125.4687a1.27061,1.27061 0 0,0 -.0312.031l-38.40625,73.2187c-.0441.086-.18236.3789-.21875.4687s-.15914.4074-.1875.5-.10489.4053-.125.5c-.0201.095-.0508.4039-.0625.5-.86141,6.7599 3.51131,13.2202 9.84375,14.4063 6.19448,1.1602 12.76953-2.1499 17.59375-8.6563 .0415-.058.1811-.2522.21875-.3124 .0336-.054.11165-.2326.15625-.3126l.03115-.0306 40.375-72.2188c.0385-.069.18525-.3036.21875-.375s.12794-.3013.15625-.375 .10203-.3308.125-.4062c.023-.075.10748-.3294.125-.4062 1.08485-4.7663-.75984-9.6567-4.25-12.3126-2.52333-1.9198-5.51543-2.7818-8.53125-2.875z" fill="#fff" filter="url(#ad)"/>
   <path d="m602.5 1431.4c-4.5366 0.574-9.2007 2.915-12.594 7.1563a4.5752 4.5752 0 0 0 -0.5 0.7187l-38.406 73.219a4.5752 4.5752 0 0 0 -0.46875 1.5313c-0.77995 6.1206 3.2097 11.951 8.8125 13s11.724-1.9258 16.344-8.1563a4.5752 4.5752 0 0 0 0.3125 -0.5l40.406-72.25a4.5752 4.5752 0 0 0 0.46875 -1.2187c0.97115-4.2667-0.73178-8.7109-3.7812-11.031s-6.8278-2.9452-10.594-2.4687z" fill="#ffb380"/>
   <path d="m571.99 1516.2 40.406-72.226c2.0858-9.164-11.954-11.258-18.94-2.5254l-38.386 73.236c-1.0845 8.5104 9.1104 12.048 16.92 1.5153z" fill="#a40"/>
   <path d="m603.91 1435.9c-3.6123 0.2259-7.5994 2.015-10.438 5.5625l-1.1875 2.25 6.75 24.156 13.375-23.906c1.2385-5.4411-3.2205-8.3926-8.5-8.0625z" fill="#520"/>
   <path transform="matrix(1.0198 -.27068 .28857 .95656 -434.9 223.82)" d="m598.77 1462.8c0 4.8467-2.5722 8.7757-5.7452 8.7757s-5.7452-3.929-5.7452-8.7757 2.5722-8.7757 5.7452-8.7757c3.1224 0 5.6731 3.809 5.7438 8.5771" fill="#520" filter="url(#d)"/>
   <path transform="matrix(1.0198 -.27068 .28857 .95656 -434.9 223.82)" d="m593.03 1455.3c-1.0702 1e-4 -2.1497 0.6539-3.0312 2s-1.4688 3.3293-1.4688 5.5313 0.5885 4.1624 1.4688 5.5 1.957 2 3.0312 2 2.151-0.6624 3.0312-2 1.4688-3.298 1.4688-5.5v-0.2185c-0.0377-2.1524-0.65933-4.078-1.5312-5.375-0.87635-1.3037-1.9136-1.9376-2.9688-1.9376z" fill="#1a1a1a" filter="url(#d)"/>
   <path d="m603.91 1435.9c-3.6123 0.2259-7.5994 2.015-10.438 5.5625l-1.1875 2.25 6.75 24.156 13.375-23.906c1.2385-5.4411-3.2205-8.3926-8.5-8.0625z" fill="url(#ab)"/>
   <path d="m605.19 1453.5c-4.9739 0.026-10.146 0.9873-16.031 1.8437-0.60478 4.7643-2.8297 9.8809 2.2812 13.375 2.3886 0.5438 4.7192 0.4926 7 0.25l8.5938-15.406c-0.61587-0.031-1.2247-0.066-1.8438-0.062z" fill="#e9c6af"/>
   <path d="m605.19 1453.5c-4.9739 0.026-10.146 0.9873-16.031 1.8437-0.60478 4.7643-2.8297 9.8809 2.2812 13.375 2.3886 0.5438 4.7192 0.4926 7 0.25l8.5938-15.406c-0.61587-0.031-1.2247-0.066-1.8438-0.062z" fill="url(#aa)"/>
   <path d="m605.19 1453.5c-4.9739 0.026-10.146 0.9873-16.031 1.8437-0.60478 4.7643-2.8297 9.8809 2.2812 13.375 2.3886 0.5438 4.7192 0.4926 7 0.25l8.5938-15.406c-0.61587-0.031-1.2247-0.066-1.8438-0.062z" fill="url(#w)"/>
   <path transform="matrix(1.0955 -.26479 .30998 .93576 -524.13 274.85)" d="m598.77 1462.8c0 4.8467-2.5722 8.7757-5.7452 8.7757s-5.7452-3.929-5.7452-8.7757 2.5722-8.7757 5.7452-8.7757c3.1224 0 5.6731 3.809 5.7438 8.5771" fill="#520" filter="url(#d)"/>
   <path transform="matrix(1.0955 -.26479 .30998 .93576 -524.13 274.85)" d="m593.03 1455.3c-1.0702 1e-4 -2.1497 0.6539-3.0312 2s-1.4688 3.3293-1.4688 5.5313 0.5885 4.1624 1.4688 5.5 1.957 2 3.0312 2 2.151-0.6624 3.0312-2 1.4688-3.298 1.4688-5.5v-0.2185c-0.0377-2.1524-0.65933-4.078-1.5312-5.375-0.87635-1.3037-1.9136-1.9376-2.9688-1.9376z" fill="#1a1a1a" filter="url(#d)"/>
   <path d="m592.31 1478c-4.9739 0.026-10.146 0.9873-16.031 1.8437-0.60478 4.7643-2.8297 9.8809 2.2812 13.375 2.0866 0.475 4.1202 0.4771 6.125 0.3125l8.6562-15.5c-0.34538-0.01-0.68493-0.033-1.0312-0.031z" fill="#e9c6af"/>
   <path d="m592.31 1478c-4.9739 0.026-10.146 0.9873-16.031 1.8437-0.60478 4.7643-2.8297 9.8809 2.2812 13.375 2.0866 0.475 4.1202 0.4771 6.125 0.3125l8.6562-15.5c-0.34538-0.01-0.68493-0.033-1.0312-0.031z" fill="url(#z)"/>
   <path d="m592.31 1478c-4.9739 0.026-10.146 0.9873-16.031 1.8437-0.60478 4.7643-2.8297 9.8809 2.2812 13.375 2.0866 0.475 4.1202 0.4771 6.125 0.3125l8.6562-15.5c-0.34538-0.01-0.68493-0.033-1.0312-0.031z" fill="url(#v)"/>
   <path transform="matrix(.97676 -.26716 .27639 .94412 -418.02 289.35)" d="m598.77 1462.8c0 4.8467-2.5722 8.7757-5.7452 8.7757s-5.7452-3.929-5.7452-8.7757 2.5722-8.7757 5.7452-8.7757c3.1224 0 5.6731 3.809 5.7438 8.5771" fill="#520" filter="url(#d)"/>
   <path transform="matrix(.97676 -.26716 .27639 .94412 -418.02 289.35)" d="m593.03 1455.3c-1.0702 1e-4 -2.1497 0.6539-3.0312 2s-1.4688 3.3293-1.4688 5.5313 0.5885 4.1624 1.4688 5.5 1.957 2 3.0312 2 2.151-0.6624 3.0312-2 1.4688-3.298 1.4688-5.5v-0.2185c-0.0377-2.1524-0.65933-4.078-1.5312-5.375-0.87635-1.3037-1.9136-1.9376-2.9688-1.9376z" fill="#1a1a1a" filter="url(#d)"/>
   <path d="m578.4375,1503.2188c-4.97386.026-10.14577.9873-16.03125,1.8437-.60478,4.7643-2.86099,9.8809 2.25,13.375 1.71481.3904 3.39871.4495 5.0625.375 .77388-.7548 1.53875-1.6236 2.28125-2.625l7.25-12.9375c-.27084-.01-.53967-.033-.8125-.031z" fill="#e9c6af"/>
   <path d="m578.4375,1503.2188c-4.97386.026-10.14577.9873-16.03125,1.8437-.60478,4.7643-2.86099,9.8809 2.25,13.375 1.71481.3904 3.39871.4495 5.0625.375 .77388-.7548 1.53875-1.6236 2.28125-2.625l7.25-12.9375c-.27084-.01-.53967-.033-.8125-.031z" fill="url(#y)"/>
   <path d="m578.4375,1503.2188c-4.97386.026-10.14577.9873-16.03125,1.8437-.60478,4.7643-2.86099,9.8809 2.25,13.375 1.71481.3904 3.39871.4495 5.0625.375 .77388-.7548 1.53875-1.6236 2.28125-2.625l7.25-12.9375c-.27084-.01-.53967-.033-.8125-.031z" fill="url(#u)"/>
  </g>
  <g transform="matrix(1.0134 0 0 .97343 -1389.8 237.3)">
   <path d="m605.34375,1430.0312c-1.00527-.031-1.99796.03-3,.1563-4.84306.6128-9.80322,3.1093-13.40625,7.5937l-.0312.031c-.0822.1004-.25697.3264-.3125.4063-.0603.087-.22953.3767-.28125.4687a1.27061,1.27061 0 0,0 -.0312.031l-38.40625,73.2187c-.0441.086-.18236.3789-.21875.4687s-.15914.4074-.1875.5-.10489.4053-.125.5c-.0201.095-.0508.4039-.0625.5-.86141,6.7599 3.51131,13.2202 9.84375,14.4063 6.19448,1.1602 12.76953-2.1499 17.59375-8.6563 .0415-.058.1811-.2522.21875-.3124 .0336-.054.11165-.2326.15625-.3126l.03115-.0306 40.375-72.2188c.0385-.069.18525-.3036.21875-.375s.12794-.3013.15625-.375 .10203-.3308.125-.4062c.023-.075.10748-.3294.125-.4062 1.08485-4.7663-.75984-9.6567-4.25-12.3126-2.52333-1.9198-5.51543-2.7818-8.53125-2.875z" fill="#fff" filter="url(#ad)"/>
   <path d="m602.5 1431.4c-4.5366 0.574-9.2007 2.915-12.594 7.1563a4.5752 4.5752 0 0 0 -0.5 0.7187l-38.406 73.219a4.5752 4.5752 0 0 0 -0.46875 1.5313c-0.77995 6.1206 3.2097 11.951 8.8125 13s11.724-1.9258 16.344-8.1563a4.5752 4.5752 0 0 0 0.3125 -0.5l40.406-72.25a4.5752 4.5752 0 0 0 0.46875 -1.2187c0.97115-4.2667-0.73178-8.7109-3.7812-11.031s-6.8278-2.9452-10.594-2.4687z" fill="#ffb380"/>
   <path d="m571.99 1516.2 40.406-72.226c2.0858-9.164-11.954-11.258-18.94-2.5254l-38.386 73.236c-1.0845 8.5104 9.1104 12.048 16.92 1.5153z" fill="#a40"/>
   <path d="m603.91 1435.9c-3.6123 0.2259-7.5994 2.015-10.438 5.5625l-1.1875 2.25 6.75 24.156 13.375-23.906c1.2385-5.4411-3.2205-8.3926-8.5-8.0625z" fill="#520"/>
   <path transform="matrix(1.0198 -.27068 .28857 .95656 -434.9 223.82)" d="m598.77 1462.8c0 4.8467-2.5722 8.7757-5.7452 8.7757s-5.7452-3.929-5.7452-8.7757 2.5722-8.7757 5.7452-8.7757c3.1224 0 5.6731 3.809 5.7438 8.5771" fill="#520" filter="url(#d)"/>
   <path transform="matrix(1.0198 -.27068 .28857 .95656 -434.9 223.82)" d="m593.03 1455.3c-1.0702 1e-4 -2.1497 0.6539-3.0312 2s-1.4688 3.3293-1.4688 5.5313 0.5885 4.1624 1.4688 5.5 1.957 2 3.0312 2 2.151-0.6624 3.0312-2 1.4688-3.298 1.4688-5.5v-0.2185c-0.0377-2.1524-0.65933-4.078-1.5312-5.375-0.87635-1.3037-1.9136-1.9376-2.9688-1.9376z" fill="#1a1a1a" filter="url(#d)"/>
   <path d="m603.91 1435.9c-3.6123 0.2259-7.5994 2.015-10.438 5.5625l-1.1875 2.25 6.75 24.156 13.375-23.906c1.2385-5.4411-3.2205-8.3926-8.5-8.0625z" fill="url(#ab)"/>
   <path d="m605.19 1453.5c-4.9739 0.026-10.146 0.9873-16.031 1.8437-0.60478 4.7643-2.8297 9.8809 2.2812 13.375 2.3886 0.5438 4.7192 0.4926 7 0.25l8.5938-15.406c-0.61587-0.031-1.2247-0.066-1.8438-0.062z" fill="#e9c6af"/>
   <path d="m605.19 1453.5c-4.9739 0.026-10.146 0.9873-16.031 1.8437-0.60478 4.7643-2.8297 9.8809 2.2812 13.375 2.3886 0.5438 4.7192 0.4926 7 0.25l8.5938-15.406c-0.61587-0.031-1.2247-0.066-1.8438-0.062z" fill="url(#aa)"/>
   <path d="m605.19 1453.5c-4.9739 0.026-10.146 0.9873-16.031 1.8437-0.60478 4.7643-2.8297 9.8809 2.2812 13.375 2.3886 0.5438 4.7192 0.4926 7 0.25l8.5938-15.406c-0.61587-0.031-1.2247-0.066-1.8438-0.062z" fill="url(#w)"/>
   <path transform="matrix(1.0955 -.26479 .30998 .93576 -524.13 274.85)" d="m598.77 1462.8c0 4.8467-2.5722 8.7757-5.7452 8.7757s-5.7452-3.929-5.7452-8.7757 2.5722-8.7757 5.7452-8.7757c3.1224 0 5.6731 3.809 5.7438 8.5771" fill="#520" filter="url(#d)"/>
   <path transform="matrix(1.0955 -.26479 .30998 .93576 -524.13 274.85)" d="m593.03 1455.3c-1.0702 1e-4 -2.1497 0.6539-3.0312 2s-1.4688 3.3293-1.4688 5.5313 0.5885 4.1624 1.4688 5.5 1.957 2 3.0312 2 2.151-0.6624 3.0312-2 1.4688-3.298 1.4688-5.5v-0.2185c-0.0377-2.1524-0.65933-4.078-1.5312-5.375-0.87635-1.3037-1.9136-1.9376-2.9688-1.9376z" fill="#1a1a1a" filter="url(#d)"/>
   <path d="m592.31 1478c-4.9739 0.026-10.146 0.9873-16.031 1.8437-0.60478 4.7643-2.8297 9.8809 2.2812 13.375 2.0866 0.475 4.1202 0.4771 6.125 0.3125l8.6562-15.5c-0.34538-0.01-0.68493-0.033-1.0312-0.031z" fill="#e9c6af"/>
   <path d="m592.31 1478c-4.9739 0.026-10.146 0.9873-16.031 1.8437-0.60478 4.7643-2.8297 9.8809 2.2812 13.375 2.0866 0.475 4.1202 0.4771 6.125 0.3125l8.6562-15.5c-0.34538-0.01-0.68493-0.033-1.0312-0.031z" fill="url(#z)"/>
   <path d="m592.31 1478c-4.9739 0.026-10.146 0.9873-16.031 1.8437-0.60478 4.7643-2.8297 9.8809 2.2812 13.375 2.0866 0.475 4.1202 0.4771 6.125 0.3125l8.6562-15.5c-0.34538-0.01-0.68493-0.033-1.0312-0.031z" fill="url(#v)"/>
   <path transform="matrix(.97676 -.26716 .27639 .94412 -418.02 289.35)" d="m598.77 1462.8c0 4.8467-2.5722 8.7757-5.7452 8.7757s-5.7452-3.929-5.7452-8.7757 2.5722-8.7757 5.7452-8.7757c3.1224 0 5.6731 3.809 5.7438 8.5771" fill="#520" filter="url(#d)"/>
   <path transform="matrix(.97676 -.26716 .27639 .94412 -418.02 289.35)" d="m593.03 1455.3c-1.0702 1e-4 -2.1497 0.6539-3.0312 2s-1.4688 3.3293-1.4688 5.5313 0.5885 4.1624 1.4688 5.5 1.957 2 3.0312 2 2.151-0.6624 3.0312-2 1.4688-3.298 1.4688-5.5v-0.2185c-0.0377-2.1524-0.65933-4.078-1.5312-5.375-0.87635-1.3037-1.9136-1.9376-2.9688-1.9376z" fill="#1a1a1a" filter="url(#d)"/>
   <path d="m578.4375,1503.2188c-4.97386.026-10.14577.9873-16.03125,1.8437-.60478,4.7643-2.86099,9.8809 2.25,13.375 1.71481.3904 3.39871.4495 5.0625.375 .77388-.7548 1.53875-1.6236 2.28125-2.625l7.25-12.9375c-.27084-.01-.53967-.033-.8125-.031z" fill="#e9c6af"/>
   <path d="m578.4375,1503.2188c-4.97386.026-10.14577.9873-16.03125,1.8437-.60478,4.7643-2.86099,9.8809 2.25,13.375 1.71481.3904 3.39871.4495 5.0625.375 .77388-.7548 1.53875-1.6236 2.28125-2.625l7.25-12.9375c-.27084-.01-.53967-.033-.8125-.031z" fill="url(#y)"/>
   <path d="m578.4375,1503.2188c-4.97386.026-10.14577.9873-16.03125,1.8437-.60478,4.7643-2.86099,9.8809 2.25,13.375 1.71481.3904 3.39871.4495 5.0625.375 .77388-.7548 1.53875-1.6236 2.28125-2.625l7.25-12.9375c-.27084-.01-.53967-.033-.8125-.031z" fill="url(#u)"/>
  </g>
  <path d="m-819.85 2233.4c3.968 10.974 6.5663 23.588 7.4564 38.25 4.0888 47.778-30.88 99.255-68.487 151-49.497 60.244-27.995 111.69-14.847 164.16 26.552 67.97 31.483 138.77 16.982 212.12-18.709 86.107-66.623 134.51-124.75 169.72-41.945 21.353-87.729 27.761-135.82 25.062l-0.099 0.1875c51.352 6.4617 102.22 9.5023 150.77-4.0312 53.479-14.344 89.404-46.413 118.94-84.875 27.401-42.556 41.604-88.585 43.523-137.88 4.0849-51.518-11.972-103.04-28.676-154.56-16.839-64.809-3.6859-121.04 36.099-169.69 31.254-50.668 55.12-100.45 31.862-144.47l-32.946-65z" fill="#2b1100"/>
  <path d="m-1011.7 2138.3c43.009 0.4972 83.912 12.584 124.25 27.779 39.637 17.286 72.649 42.917 76.267 105.56 3.89 47.778-29.377 99.273-65.155 151.02-47.09 60.244-26.651 111.68-14.142 164.15 25.261 67.97 29.958 138.78 16.162 212.13-17.799 86.107-63.389 134.5-118.69 169.71-61.46 32.886-131.53 30.371-205.06 13.637-99.442-27.341-180.2-76.032-241.93-146.47-53.942-81.81-43.334-165.52-6.0609-250.01 30.09-61.624 73.409-95.318 115.16-132.33 53.026-38.884 74.713-84.196 75.256-133.85 6.621-80.186 30.198-112.8 55.558-140.41 34.482-30.302 79.389-48.758 143.44-45.457z" fill="url(#ai)"/>
  <path d="m-825.61 1738.6-0.2317 14.375 29.548-11.964 57.416-97.5-5.5564-18.571-57.416 96.786c-12.834 2.0308-18.265 7.7684-23.76 16.875z" fill="#800000"/>
  <path d="m-801.62 1721.3-0.21875 0.375c-12.834 2.0308-19.692 9.831-25.188 18.938l1.4464 11.688 29.304-11.312 0.28125-0.5-4.8125-18.688-0.8125-0.5z" fill="url(#am)"/>
  <g transform="translate(-1499.5 -33.548)">
   <g transform="translate(-10.607 -1.5152)">
    <path d="m781.01 1706.9c-6.7896-1.2217-16.526 0.7281-24.286 8.9286-0.75556 1.4881-0.90955 2.9762-0.71429 4.4643 0.27327 4.5644 0.85879 6.3185 1.6072 6.6071 12.206 5.5326 28.065-5.8578 28.214-9.8214 0.0236-2.1013-1.0864-4.7694-1.9643-7.3215-0.95238-2.0682-1.9048-2.0774-2.8572-2.8571z" fill="url(#r)"/>
    <path d="m776.91 1706.5c-1.1094 0.011-2.2592 0.1065-3.4375 0.2813 0.62235 6.614 1.4621 13.008 3.4375 18.344 5.1551-2.6307 8.8658-6.2257 8.9375-8.125 0.0236-2.1013-1.0908-4.7603-1.9688-7.3124-0.95238-2.0682-1.9226-2.0641-2.875-2.8438-1.273-0.2291-2.6459-0.358-4.0938-0.3438z" fill="url(#q)"/>
    <path d="m776.91 1706.5c-6.2739 0.062-13.883 2.5871-20.188 9.25-0.13167 0.2594-0.24729 0.522-0.34375 0.7813 9.0688 1.1662 18.683-3.0039 26.188-8.625-0.52144-0.4293-1.0411-0.6356-1.5625-1.0625-1.273-0.2291-2.6459-0.358-4.0938-0.3438z" fill="#d38d5f"/>
    <path d="m776.91 1706.5c-6.2739 0.062-13.883 2.5871-20.188 9.25-0.13167 0.2594-0.24729 0.522-0.34375 0.7813 9.0688 1.1662 18.683-3.0039 26.188-8.625-0.52144-0.4293-1.0411-0.6356-1.5625-1.0625-1.273-0.2291-2.6459-0.358-4.0938-0.3438z" fill="url(#j)"/>
    <path d="m776.91 1706.5c-6.2739 0.062-13.883 2.5871-20.188 9.25-0.13167 0.2594-0.24729 0.522-0.34375 0.7813 9.0688 1.1662 18.683-3.0039 26.188-8.625-0.52144-0.4293-1.0411-0.6356-1.5625-1.0625-1.273-0.2291-2.6459-0.358-4.0938-0.3438z" fill="url(#i)"/>
    <path d="m759.04 1678.1 6.4286 33.214c2.619 0.7422 5.2381 1.8005 7.8572-1.6072l-6.7857-32.857c-1.951 0.4608-4.2057 1.237-7.5 1.25z" fill="#f95"/>
    <path d="m759.04 1678.1 6.4286 33.214c2.619 0.7422 5.2381 1.8005 7.8572-1.6072l-6.7857-32.857c-1.951 0.4608-4.2057 1.237-7.5 1.25z" fill="url(#p)"/>
    <path d="m759.04 1678.1 6.4286 33.214c2.619 0.7422 5.2381 1.8005 7.8572-1.6072l-6.7857-32.857c-1.951 0.4608-4.2057 1.237-7.5 1.25z" fill="url(#o)"/>
    <path d="m766.12 1677c-0.9129 0.2278-1.8689 0.492-3 0.7187l7.0938 34.25c0.94215-0.2242 1.9016-0.7618 2.8438-1.875l-6.9375-33.094z" fill="url(#h)"/>
    <path transform="matrix(1.1304 0 0 1.25 57.619 -424.04)" d="m627.68 1680.6c0 1.1835-1.8388 2.1429-4.1071 2.1429s-4.1071-0.9594-4.1071-2.1429 1.8388-2.1428 4.1071-2.1428c1.9155 0 3.5767 0.6908 4.0038 1.6651" fill="url(#g)"/>
    <path transform="matrix(1.1304 0 0 1.25 57.53 -425.11)" d="m627.68 1680.6c0 1.1835-1.8388 2.1429-4.1071 2.1429s-4.1071-0.9594-4.1071-2.1429 1.8388-2.1428 4.1071-2.1428c1.9155 0 3.5767 0.6908 4.0038 1.6651" fill="#ccc"/>
    <path transform="matrix(1.1304 0 0 1.25 57.53 -425.11)" d="m627.68 1680.6c0 1.1835-1.8388 2.1429-4.1071 2.1429s-4.1071-0.9594-4.1071-2.1429 1.8388-2.1428 4.1071-2.1428c1.9155 0 3.5767 0.6908 4.0038 1.6651" fill="url(#f)"/>
    <path d="m770.67 1697.2c-0.77618 3.2669-3.5213 3.9904-5.5357 4.3304" fill="none" filter="url(#b)" stroke="#1a1a1a"/>
    <path d="m770.67 1696.9c-0.77618 3.2669-3.5213 3.9904-5.5357 4.3304" fill="none" stroke="url(#c)"/>
    <g transform="translate(.66964 2.6339)" fill="none">
     <path d="m770.67 1697.2c-0.77618 3.2669-3.5213 3.9904-5.5357 4.3304" filter="url(#b)" stroke="#1a1a1a"/>
     <path d="m770.67 1696.9c-0.77618 3.2669-3.5213 3.9904-5.5357 4.3304" stroke="url(#c)"/>
    </g>
   </g>
   <path transform="matrix(.94318 0 0 1 42.549 0)" d="m748.78 1688c5.8777-1.0828 7.9272-2.8036 9.849-4.5457l1.5152 8.8388c-2.5982 4.4455-6.1324 3.2752-9.3439 4.0406z" fill="#1a1a1a" filter="url(#b)"/>
   <path d="m748.52 1687.2c5.8777-1.0828 7.9272-2.8036 9.849-4.5457l1.5152 8.8388c-2.5982 4.4455-6.1324 3.2752-9.3439 4.0406z" fill="#ccc"/>
   <path d="m748.52 1687.2c5.8777-1.0828 7.9272-2.8036 9.849-4.5457l1.5152 8.8388c-2.5982 4.4455-6.1324 3.2752-9.3439 4.0406z" fill="url(#n)"/>
   <path d="m748.52 1687.2c5.8777-1.0828 7.9272-2.8036 9.849-4.5457l1.5152 8.8388c-2.5982 4.4455-6.1324 3.2752-9.3439 4.0406z" fill="url(#m)"/>
  </g>
  <g transform="translate(-1481.1 -68.926)">
   <path transform="matrix(.37436 0 0 .39048 475.54 1056.8)" d="m702.14 1719.5c0 10.355-7.795 18.75-17.411 18.75s-17.411-8.3947-17.411-18.75 7.795-18.75 17.411-18.75c9.4622 0 17.192 8.1383 17.406 18.326" fill="#b3b3b3"/>
   <path transform="matrix(.37436 0 0 .39048 475.54 1056.8)" d="m702.14 1719.5c0 10.355-7.795 18.75-17.411 18.75s-17.411-8.3947-17.411-18.75 7.795-18.75 17.411-18.75c9.4622 0 17.192 8.1383 17.406 18.326" fill="url(#l)"/>
   <path transform="matrix(.1641 0 0 .27143 623.17 1261.4)" d="m702.14 1719.5c0 10.355-7.795 18.75-17.411 18.75s-17.411-8.3947-17.411-18.75 7.795-18.75 17.411-18.75c9.4622 0 17.192 8.1383 17.406 18.326" fill="#808080"/>
   <g transform="translate(0,.35714)" fill="#ccc" stroke="#ccc">
    <path d="m731.74 1721.3 2.8125 1.0268"/>
    <path d="m729.38 1722.6 3.8393 1.4286"/>
    <path d="m727.68 1724.6 4.8214 1.0268"/>
    <path d="m726.52 1727.2 5.7143 0.089"/>
    <path d="m726.7 1729.9 5.4464-0.7589"/>
    <path d="m727.63 1732 4.9107-1.4732"/>
    <path d="m729.29 1734 3.75-2.0536"/>
    <path d="m731.52 1735 2.3661-1.8304"/>
    <path d="m734.24 1734.7 0.66965-0.8483"/>
    <path d="m734.24 1721 1.4286 1.2501"/>
   </g>
   <g fill="#333" stroke="#4d4d4d">
    <path d="m731.74 1721.3 2.8125 1.0268"/>
    <path d="m729.38 1722.6 3.8393 1.4286"/>
    <path d="m727.68 1724.6 4.8214 1.0268"/>
    <path d="m726.52 1727.2 5.7143 0.089"/>
    <path d="m726.7 1729.9 5.4464-0.7589"/>
    <path d="m727.63 1732 4.9107-1.4732"/>
    <path d="m729.29 1734 3.75-2.0536"/>
    <path d="m731.52 1735 2.3661-1.8304"/>
    <path d="m734.24 1734.7 0.66965-0.8483"/>
    <path d="m734.24 1721 1.4286 1.2501"/>
   </g>
   <path transform="matrix(.1641 0 0 .27143 623.17 1261.4)" d="m684.72 1703.2c-8.195 0-14.969 7.1814-14.969 16.312s6.7737 16.312 14.969 16.312c8.1663 0 14.953-7.1382 15-16.219v-0.094l-0.0312-0.2188a2.4411 2.4411 0 0 1 0 -0.125c-0.18874-8.9809-6.9093-15.969-14.969-15.969z" fill="url(#k)"/>
  </g>
  <g transform="translate(-1514.6 -5.2634)">
   <g transform="translate(-10.607 -1.5152)">
    <path d="m781.01 1706.9c-6.7896-1.2217-16.526 0.7281-24.286 8.9286-0.75556 1.4881-0.90955 2.9762-0.71429 4.4643 0.27327 4.5644 0.85879 6.3185 1.6072 6.6071 12.206 5.5326 28.065-5.8578 28.214-9.8214 0.0236-2.1013-1.0864-4.7694-1.9643-7.3215-0.95238-2.0682-1.9048-2.0774-2.8572-2.8571z" fill="url(#r)"/>
    <path d="m776.91 1706.5c-1.1094 0.011-2.2592 0.1065-3.4375 0.2813 0.62235 6.614 1.4621 13.008 3.4375 18.344 5.1551-2.6307 8.8658-6.2257 8.9375-8.125 0.0236-2.1013-1.0908-4.7603-1.9688-7.3124-0.95238-2.0682-1.9226-2.0641-2.875-2.8438-1.273-0.2291-2.6459-0.358-4.0938-0.3438z" fill="url(#q)"/>
    <path d="m776.91 1706.5c-6.2739 0.062-13.883 2.5871-20.188 9.25-0.13167 0.2594-0.24729 0.522-0.34375 0.7813 9.0688 1.1662 18.683-3.0039 26.188-8.625-0.52144-0.4293-1.0411-0.6356-1.5625-1.0625-1.273-0.2291-2.6459-0.358-4.0938-0.3438z" fill="#d38d5f"/>
    <path d="m776.91 1706.5c-6.2739 0.062-13.883 2.5871-20.188 9.25-0.13167 0.2594-0.24729 0.522-0.34375 0.7813 9.0688 1.1662 18.683-3.0039 26.188-8.625-0.52144-0.4293-1.0411-0.6356-1.5625-1.0625-1.273-0.2291-2.6459-0.358-4.0938-0.3438z" fill="url(#j)"/>
    <path d="m776.91 1706.5c-6.2739 0.062-13.883 2.5871-20.188 9.25-0.13167 0.2594-0.24729 0.522-0.34375 0.7813 9.0688 1.1662 18.683-3.0039 26.188-8.625-0.52144-0.4293-1.0411-0.6356-1.5625-1.0625-1.273-0.2291-2.6459-0.358-4.0938-0.3438z" fill="url(#i)"/>
    <path d="m759.04 1678.1 6.4286 33.214c2.619 0.7422 5.2381 1.8005 7.8572-1.6072l-6.7857-32.857c-1.951 0.4608-4.2057 1.237-7.5 1.25z" fill="#f95"/>
    <path d="m759.04 1678.1 6.4286 33.214c2.619 0.7422 5.2381 1.8005 7.8572-1.6072l-6.7857-32.857c-1.951 0.4608-4.2057 1.237-7.5 1.25z" fill="url(#p)"/>
    <path d="m759.04 1678.1 6.4286 33.214c2.619 0.7422 5.2381 1.8005 7.8572-1.6072l-6.7857-32.857c-1.951 0.4608-4.2057 1.237-7.5 1.25z" fill="url(#o)"/>
    <path d="m766.12 1677c-0.9129 0.2278-1.8689 0.492-3 0.7187l7.0938 34.25c0.94215-0.2242 1.9016-0.7618 2.8438-1.875l-6.9375-33.094z" fill="url(#h)"/>
    <path transform="matrix(1.1304 0 0 1.25 57.619 -424.04)" d="m627.68 1680.6c0 1.1835-1.8388 2.1429-4.1071 2.1429s-4.1071-0.9594-4.1071-2.1429 1.8388-2.1428 4.1071-2.1428c1.9155 0 3.5767 0.6908 4.0038 1.6651" fill="url(#g)"/>
    <path transform="matrix(1.1304 0 0 1.25 57.53 -425.11)" d="m627.68 1680.6c0 1.1835-1.8388 2.1429-4.1071 2.1429s-4.1071-0.9594-4.1071-2.1429 1.8388-2.1428 4.1071-2.1428c1.9155 0 3.5767 0.6908 4.0038 1.6651" fill="#ccc"/>
    <path transform="matrix(1.1304 0 0 1.25 57.53 -425.11)" d="m627.68 1680.6c0 1.1835-1.8388 2.1429-4.1071 2.1429s-4.1071-0.9594-4.1071-2.1429 1.8388-2.1428 4.1071-2.1428c1.9155 0 3.5767 0.6908 4.0038 1.6651" fill="url(#f)"/>
    <path d="m770.67 1697.2c-0.77618 3.2669-3.5213 3.9904-5.5357 4.3304" fill="none" filter="url(#b)" stroke="#1a1a1a"/>
    <path d="m770.67 1696.9c-0.77618 3.2669-3.5213 3.9904-5.5357 4.3304" fill="none" stroke="url(#c)"/>
    <g transform="translate(.66964 2.6339)" fill="none">
     <path d="m770.67 1697.2c-0.77618 3.2669-3.5213 3.9904-5.5357 4.3304" filter="url(#b)" stroke="#1a1a1a"/>
     <path d="m770.67 1696.9c-0.77618 3.2669-3.5213 3.9904-5.5357 4.3304" stroke="url(#c)"/>
    </g>
   </g>
   <path transform="matrix(.94318 0 0 1 42.549 0)" d="m748.78 1688c5.8777-1.0828 7.9272-2.8036 9.849-4.5457l1.5152 8.8388c-2.5982 4.4455-6.1324 3.2752-9.3439 4.0406z" fill="#1a1a1a" filter="url(#b)"/>
   <path d="m748.52 1687.2c5.8777-1.0828 7.9272-2.8036 9.849-4.5457l1.5152 8.8388c-2.5982 4.4455-6.1324 3.2752-9.3439 4.0406z" fill="#ccc"/>
   <path d="m748.52 1687.2c5.8777-1.0828 7.9272-2.8036 9.849-4.5457l1.5152 8.8388c-2.5982 4.4455-6.1324 3.2752-9.3439 4.0406z" fill="url(#n)"/>
   <path d="m748.52 1687.2c5.8777-1.0828 7.9272-2.8036 9.849-4.5457l1.5152 8.8388c-2.5982 4.4455-6.1324 3.2752-9.3439 4.0406z" fill="url(#m)"/>
  </g>
  <g transform="translate(-1496.2 -40.642)">
   <path transform="matrix(.37436 0 0 .39048 475.54 1056.8)" d="m702.14 1719.5c0 10.355-7.795 18.75-17.411 18.75s-17.411-8.3947-17.411-18.75 7.795-18.75 17.411-18.75c9.4622 0 17.192 8.1383 17.406 18.326" fill="#b3b3b3"/>
   <path transform="matrix(.37436 0 0 .39048 475.54 1056.8)" d="m702.14 1719.5c0 10.355-7.795 18.75-17.411 18.75s-17.411-8.3947-17.411-18.75 7.795-18.75 17.411-18.75c9.4622 0 17.192 8.1383 17.406 18.326" fill="url(#l)"/>
   <path transform="matrix(.1641 0 0 .27143 623.17 1261.4)" d="m702.14 1719.5c0 10.355-7.795 18.75-17.411 18.75s-17.411-8.3947-17.411-18.75 7.795-18.75 17.411-18.75c9.4622 0 17.192 8.1383 17.406 18.326" fill="#808080"/>
   <g transform="translate(0,.35714)" fill="#ccc" stroke="#ccc">
    <path d="m731.74 1721.3 2.8125 1.0268"/>
    <path d="m729.38 1722.6 3.8393 1.4286"/>
    <path d="m727.68 1724.6 4.8214 1.0268"/>
    <path d="m726.52 1727.2 5.7143 0.089"/>
    <path d="m726.7 1729.9 5.4464-0.7589"/>
    <path d="m727.63 1732 4.9107-1.4732"/>
    <path d="m729.29 1734 3.75-2.0536"/>
    <path d="m731.52 1735 2.3661-1.8304"/>
    <path d="m734.24 1734.7 0.66965-0.8483"/>
    <path d="m734.24 1721 1.4286 1.2501"/>
   </g>
   <g fill="#333" stroke="#4d4d4d">
    <path d="m731.74 1721.3 2.8125 1.0268"/>
    <path d="m729.38 1722.6 3.8393 1.4286"/>
    <path d="m727.68 1724.6 4.8214 1.0268"/>
    <path d="m726.52 1727.2 5.7143 0.089"/>
    <path d="m726.7 1729.9 5.4464-0.7589"/>
    <path d="m727.63 1732 4.9107-1.4732"/>
    <path d="m729.29 1734 3.75-2.0536"/>
    <path d="m731.52 1735 2.3661-1.8304"/>
    <path d="m734.24 1734.7 0.66965-0.8483"/>
    <path d="m734.24 1721 1.4286 1.2501"/>
   </g>
   <path transform="matrix(.1641 0 0 .27143 623.17 1261.4)" d="m684.72 1703.2c-8.195 0-14.969 7.1814-14.969 16.312s6.7737 16.312 14.969 16.312c8.1663 0 14.953-7.1382 15-16.219v-0.094l-0.0312-0.2188a2.4411 2.4411 0 0 1 0 -0.125c-0.18874-8.9809-6.9093-15.969-14.969-15.969z" fill="url(#k)"/>
  </g>
  <g transform="translate(-1529.3 19.485)">
   <g transform="translate(-10.607 -1.5152)">
    <path d="m781.01 1706.9c-6.7896-1.2217-16.526 0.7281-24.286 8.9286-0.75556 1.4881-0.90955 2.9762-0.71429 4.4643 0.27327 4.5644 0.85879 6.3185 1.6072 6.6071 12.206 5.5326 28.065-5.8578 28.214-9.8214 0.0236-2.1013-1.0864-4.7694-1.9643-7.3215-0.95238-2.0682-1.9048-2.0774-2.8572-2.8571z" fill="url(#r)"/>
    <path d="m776.91 1706.5c-1.1094 0.011-2.2592 0.1065-3.4375 0.2813 0.62235 6.614 1.4621 13.008 3.4375 18.344 5.1551-2.6307 8.8658-6.2257 8.9375-8.125 0.0236-2.1013-1.0908-4.7603-1.9688-7.3124-0.95238-2.0682-1.9226-2.0641-2.875-2.8438-1.273-0.2291-2.6459-0.358-4.0938-0.3438z" fill="url(#q)"/>
    <path d="m776.91 1706.5c-6.2739 0.062-13.883 2.5871-20.188 9.25-0.13167 0.2594-0.24729 0.522-0.34375 0.7813 9.0688 1.1662 18.683-3.0039 26.188-8.625-0.52144-0.4293-1.0411-0.6356-1.5625-1.0625-1.273-0.2291-2.6459-0.358-4.0938-0.3438z" fill="#d38d5f"/>
    <path d="m776.91 1706.5c-6.2739 0.062-13.883 2.5871-20.188 9.25-0.13167 0.2594-0.24729 0.522-0.34375 0.7813 9.0688 1.1662 18.683-3.0039 26.188-8.625-0.52144-0.4293-1.0411-0.6356-1.5625-1.0625-1.273-0.2291-2.6459-0.358-4.0938-0.3438z" fill="url(#j)"/>
    <path d="m776.91 1706.5c-6.2739 0.062-13.883 2.5871-20.188 9.25-0.13167 0.2594-0.24729 0.522-0.34375 0.7813 9.0688 1.1662 18.683-3.0039 26.188-8.625-0.52144-0.4293-1.0411-0.6356-1.5625-1.0625-1.273-0.2291-2.6459-0.358-4.0938-0.3438z" fill="url(#i)"/>
    <path d="m759.04 1678.1 6.4286 33.214c2.619 0.7422 5.2381 1.8005 7.8572-1.6072l-6.7857-32.857c-1.951 0.4608-4.2057 1.237-7.5 1.25z" fill="#f95"/>
    <path d="m759.04 1678.1 6.4286 33.214c2.619 0.7422 5.2381 1.8005 7.8572-1.6072l-6.7857-32.857c-1.951 0.4608-4.2057 1.237-7.5 1.25z" fill="url(#p)"/>
    <path d="m759.04 1678.1 6.4286 33.214c2.619 0.7422 5.2381 1.8005 7.8572-1.6072l-6.7857-32.857c-1.951 0.4608-4.2057 1.237-7.5 1.25z" fill="url(#o)"/>
    <path d="m766.12 1677c-0.9129 0.2278-1.8689 0.492-3 0.7187l7.0938 34.25c0.94215-0.2242 1.9016-0.7618 2.8438-1.875l-6.9375-33.094z" fill="url(#h)"/>
    <path transform="matrix(1.1304 0 0 1.25 57.619 -424.04)" d="m627.68 1680.6c0 1.1835-1.8388 2.1429-4.1071 2.1429s-4.1071-0.9594-4.1071-2.1429 1.8388-2.1428 4.1071-2.1428c1.9155 0 3.5767 0.6908 4.0038 1.6651" fill="url(#g)"/>
    <path transform="matrix(1.1304 0 0 1.25 57.53 -425.11)" d="m627.68 1680.6c0 1.1835-1.8388 2.1429-4.1071 2.1429s-4.1071-0.9594-4.1071-2.1429 1.8388-2.1428 4.1071-2.1428c1.9155 0 3.5767 0.6908 4.0038 1.6651" fill="#ccc"/>
    <path transform="matrix(1.1304 0 0 1.25 57.53 -425.11)" d="m627.68 1680.6c0 1.1835-1.8388 2.1429-4.1071 2.1429s-4.1071-0.9594-4.1071-2.1429 1.8388-2.1428 4.1071-2.1428c1.9155 0 3.5767 0.6908 4.0038 1.6651" fill="url(#f)"/>
    <path d="m770.67 1697.2c-0.77618 3.2669-3.5213 3.9904-5.5357 4.3304" fill="none" filter="url(#b)" stroke="#1a1a1a"/>
    <path d="m770.67 1696.9c-0.77618 3.2669-3.5213 3.9904-5.5357 4.3304" fill="none" stroke="url(#c)"/>
    <g transform="translate(.66964 2.6339)" fill="none">
     <path d="m770.67 1697.2c-0.77618 3.2669-3.5213 3.9904-5.5357 4.3304" filter="url(#b)" stroke="#1a1a1a"/>
     <path d="m770.67 1696.9c-0.77618 3.2669-3.5213 3.9904-5.5357 4.3304" stroke="url(#c)"/>
    </g>
   </g>
   <path transform="matrix(.94318 0 0 1 42.549 0)" d="m748.78 1688c5.8777-1.0828 7.9272-2.8036 9.849-4.5457l1.5152 8.8388c-2.5982 4.4455-6.1324 3.2752-9.3439 4.0406z" fill="#1a1a1a" filter="url(#b)"/>
   <path d="m748.52 1687.2c5.8777-1.0828 7.9272-2.8036 9.849-4.5457l1.5152 8.8388c-2.5982 4.4455-6.1324 3.2752-9.3439 4.0406z" fill="#ccc"/>
   <path d="m748.52 1687.2c5.8777-1.0828 7.9272-2.8036 9.849-4.5457l1.5152 8.8388c-2.5982 4.4455-6.1324 3.2752-9.3439 4.0406z" fill="url(#n)"/>
   <path d="m748.52 1687.2c5.8777-1.0828 7.9272-2.8036 9.849-4.5457l1.5152 8.8388c-2.5982 4.4455-6.1324 3.2752-9.3439 4.0406z" fill="url(#m)"/>
  </g>
  <g transform="translate(-1510.9 -15.893)">
   <path transform="matrix(.37436 0 0 .39048 475.54 1056.8)" d="m702.14 1719.5c0 10.355-7.795 18.75-17.411 18.75s-17.411-8.3947-17.411-18.75 7.795-18.75 17.411-18.75c9.4622 0 17.192 8.1383 17.406 18.326" fill="#b3b3b3"/>
   <path transform="matrix(.37436 0 0 .39048 475.54 1056.8)" d="m702.14 1719.5c0 10.355-7.795 18.75-17.411 18.75s-17.411-8.3947-17.411-18.75 7.795-18.75 17.411-18.75c9.4622 0 17.192 8.1383 17.406 18.326" fill="url(#l)"/>
   <path transform="matrix(.1641 0 0 .27143 623.17 1261.4)" d="m702.14 1719.5c0 10.355-7.795 18.75-17.411 18.75s-17.411-8.3947-17.411-18.75 7.795-18.75 17.411-18.75c9.4622 0 17.192 8.1383 17.406 18.326" fill="#808080"/>
   <g transform="translate(0,.35714)" fill="#ccc" stroke="#ccc">
    <path d="m731.74 1721.3 2.8125 1.0268"/>
    <path d="m729.38 1722.6 3.8393 1.4286"/>
    <path d="m727.68 1724.6 4.8214 1.0268"/>
    <path d="m726.52 1727.2 5.7143 0.089"/>
    <path d="m726.7 1729.9 5.4464-0.7589"/>
    <path d="m727.63 1732 4.9107-1.4732"/>
    <path d="m729.29 1734 3.75-2.0536"/>
    <path d="m731.52 1735 2.3661-1.8304"/>
    <path d="m734.24 1734.7 0.66965-0.8483"/>
    <path d="m734.24 1721 1.4286 1.2501"/>
   </g>
   <g fill="#333" stroke="#4d4d4d">
    <path d="m731.74 1721.3 2.8125 1.0268"/>
    <path d="m729.38 1722.6 3.8393 1.4286"/>
    <path d="m727.68 1724.6 4.8214 1.0268"/>
    <path d="m726.52 1727.2 5.7143 0.089"/>
    <path d="m726.7 1729.9 5.4464-0.7589"/>
    <path d="m727.63 1732 4.9107-1.4732"/>
    <path d="m729.29 1734 3.75-2.0536"/>
    <path d="m731.52 1735 2.3661-1.8304"/>
    <path d="m734.24 1734.7 0.66965-0.8483"/>
    <path d="m734.24 1721 1.4286 1.2501"/>
   </g>
   <path transform="matrix(.1641 0 0 .27143 623.17 1261.4)" d="m684.72 1703.2c-8.195 0-14.969 7.1814-14.969 16.312s6.7737 16.312 14.969 16.312c8.1663 0 14.953-7.1382 15-16.219v-0.094l-0.0312-0.2188a2.4411 2.4411 0 0 1 0 -0.125c-0.18874-8.9809-6.9093-15.969-14.969-15.969z" fill="url(#k)"/>
  </g>
  <path transform="matrix(1.2585 -.17938 0 1.3574 -1496.7 -773.93)" d="m331.84 2279.6c-44.127 0-83.469 32.216-83.469 75.656s39.357 75.625 83.469 75.625 83.469-32.185 83.469-75.625a23.872 23.872 0 0 0 0 -0.625l-0.0312-1.1876c-1.1136-42.74-40.01-73.844-83.438-73.844z" fill="#2b1100"/>
  <path transform="matrix(1.2585 -.17938 0 1.3574 -1496.7 -773.93)" d="m331.84 2281.1c-43.37 0-81.906 31.593-81.906 74.094s38.551 74.062 81.906 74.062 81.906-31.562 81.906-74.062a1.5557 1.5557 0 0 1 0 -0.031c3e-3 -0.2219 3e-3 -0.3406 0-0.5625l-0.0312-1.1875c-1.0896-41.817-39.19-72.312-81.875-72.312z" fill="url(#al)"/>
  <path transform="matrix(1.2585 -.18707 0 1.4156 -1498.2 -914.49)" d="m391.43 2355.2c0 28.592-26.683 51.77-59.599 51.77s-59.599-23.178-59.599-51.77 26.683-51.77 59.599-51.77c32.39 0 58.851 22.471 59.584 50.599" fill="#520"/>
  <path transform="matrix(1.178 -.17617 0 1.3332 -1466.7 -719.66)" d="m391.43 2355.2c0 28.592-26.683 51.77-59.599 51.77s-59.599-23.178-59.599-51.77 26.683-51.77 59.599-51.77c32.39 0 58.851 22.471 59.584 50.599"/>
  <path d="m-819.85 2233.4c3.968 10.974 6.5663 23.588 7.4564 38.25 4.0888 47.778-30.88 99.255-68.487 151-49.497 60.244-27.995 111.69-14.847 164.16 26.552 67.97 31.483 138.77 16.982 212.12-18.709 86.107-66.623 134.51-124.75 169.72-41.945 21.353-87.729 27.761-135.82 25.062l-0.099 0.1875c51.352 6.4617 102.22 9.5023 150.77-4.0312 53.479-14.344 89.404-46.413 118.94-84.875 27.401-42.556 41.604-88.585 43.523-137.88 4.0849-51.518-11.972-103.04-28.676-154.56-16.839-64.809-3.6859-121.04 36.099-169.69 31.254-50.668 55.12-100.45 31.862-144.47l-32.946-65z" fill="url(#ak)"/>
  <path d="m-888.09 1734.8 65.714 7.5-189.29 581.79c-18.896-29.595-47.67-41.629-96.786-17.5z" fill="#1a1a1a"/>
  <path d="m-891.38 1731 65.714 7.5-189.29 581.79c-18.896-29.595-47.67-41.629-96.786-17.5z" fill="#decd87"/>
  <path d="m-891.38 1731 65.714 7.5-189.29 581.79c-18.896-29.595-47.67-41.629-96.786-17.5z" fill="url(#ah)"/>
  <g transform="translate(-1402.1 16.162)">
   <path d="m493.33 1758.7 69.701 0.8838-0.37881 3.7881-69.827-1.389z" fill="#c8ab37"/>
   <path d="m493.33 1758.7 69.701 0.8838-0.37881 3.7881-69.827-1.389z" fill="url(#a)"/>
   <g transform="matrix(1.0382 0 0 1.1529 -32.945 -231.51)">
    <path d="m493.33 1758.7 69.701 0.8838-0.37881 3.7881-69.827-1.389z" fill="#c8ab37"/>
    <path d="m493.33 1758.7 69.701 0.8838-0.37881 3.7881-69.827-1.389z" fill="url(#a)"/>
   </g>
   <g transform="matrix(1.0788 0 0 1.2676 -68.154 -396.81)">
    <path d="m493.33 1758.7 69.701 0.8838-0.37881 3.7881-69.827-1.389z" fill="#c8ab37"/>
    <path d="m493.33 1758.7 69.701 0.8838-0.37881 3.7881-69.827-1.389z" fill="url(#a)"/>
   </g>
   <g transform="matrix(1.0889 .01835 -.01684 1.1864 -55.541 -228.32)">
    <path d="m493.33 1758.7 69.701 0.8838-0.37881 3.7881-69.827-1.389z" fill="#c8ab37"/>
    <path d="m493.33 1758.7 69.701 0.8838-0.37881 3.7881-69.827-1.389z" fill="url(#a)"/>
   </g>
   <g transform="matrix(1.1264 .04405 -.04055 1.2236 -46.904 -272.23)">
    <path d="m493.33 1758.7 69.701 0.8838-0.37881 3.7881-69.827-1.389z" fill="#c8ab37"/>
    <path d="m493.33 1758.7 69.701 0.8838-0.37881 3.7881-69.827-1.389z" fill="url(#a)"/>
   </g>
   <g transform="matrix(1.1227 .06303 -.0655 1.0802 -12.785 4.0527)">
    <path d="m493.33 1758.7 69.701 0.8838-0.37881 3.7881-69.827-1.389z" fill="#c8ab37"/>
    <path d="m493.33 1758.7 69.701 0.8838-0.37881 3.7881-69.827-1.389z" fill="url(#a)"/>
   </g>
   <g transform="matrix(1.1658 .07259 -.06802 1.2441 -43.192 -256.58)">
    <path d="m493.33 1758.7 69.701 0.8838-0.37881 3.7881-69.827-1.389z" fill="#c8ab37"/>
    <path d="m493.33 1758.7 69.701 0.8838-0.37881 3.7881-69.827-1.389z" fill="url(#a)"/>
   </g>
   <g transform="matrix(1.1836 .0702 -.06906 1.2032 -60.79 -152.03)">
    <path d="m493.33 1758.7 69.701 0.8838-0.37881 3.7881-69.827-1.389z" fill="#c8ab37"/>
    <path d="m493.33 1758.7 69.701 0.8838-0.37881 3.7881-69.827-1.389z" fill="url(#a)"/>
   </g>
   <g transform="matrix(1.1938 .08215 -.06965 1.408 -75.801 -488.93)">
    <path d="m493.33 1758.7 69.701 0.8838-0.37881 3.7881-69.827-1.389z" fill="#c8ab37"/>
    <path d="m493.33 1758.7 69.701 0.8838-0.37881 3.7881-69.827-1.389z" fill="url(#a)"/>
   </g>
   <g transform="matrix(1.2242 .08693 -.07143 1.49 -99.804 -605.1)">
    <path d="m493.33 1758.7 69.701 0.8838-0.37881 3.7881-69.827-1.389z" fill="#c8ab37"/>
    <path d="m493.33 1758.7 69.701 0.8838-0.37881 3.7881-69.827-1.389z" fill="url(#a)"/>
   </g>
   <g transform="matrix(1.2556 .12976 -.13211 1.2333 -19.347 -149.61)">
    <path d="m493.33 1758.7 69.701 0.8838-0.37881 3.7881-69.827-1.389z" fill="#c8ab37"/>
    <path d="m493.33 1758.7 69.701 0.8838-0.37881 3.7881-69.827-1.389z" fill="url(#a)"/>
   </g>
   <g transform="matrix(1.2544 .15014 -.14444 1.3039 -6.6156 -257.41)">
    <path d="m493.33 1758.7 69.701 0.8838-0.37881 3.7881-69.827-1.389z" fill="#c8ab37"/>
    <path d="m493.33 1758.7 69.701 0.8838-0.37881 3.7881-69.827-1.389z" fill="url(#a)"/>
   </g>
   <g transform="matrix(1.2805 .14666 -.13968 1.3444 -37.968 -301.5)">
    <path d="m493.33 1758.7 69.701 0.8838-0.37881 3.7881-69.827-1.389z" fill="#c8ab37"/>
    <path d="m493.33 1758.7 69.701 0.8838-0.37881 3.7881-69.827-1.389z" fill="url(#a)"/>
   </g>
   <g transform="matrix(1.2788 .17447 -.15632 1.4273 -16.893 -436.18)">
    <path d="m493.33 1758.7 69.701 0.8838-0.37881 3.7881-69.827-1.389z" fill="#c8ab37"/>
    <path d="m493.33 1758.7 69.701 0.8838-0.37881 3.7881-69.827-1.389z" fill="url(#a)"/>
   </g>
   <g transform="matrix(1.3031 .18205 -.17004 1.3951 -13.222 -360.9)">
    <path d="m493.33 1758.7 69.701 0.8838-0.37881 3.7881-69.827-1.389z" fill="#c8ab37"/>
    <path d="m493.33 1758.7 69.701 0.8838-0.37881 3.7881-69.827-1.389z" fill="url(#a)"/>
   </g>
   <g transform="matrix(1.3189 .19299 -.18941 1.3439 4.0582 -252.86)">
    <path d="m493.33 1758.7 69.701 0.8838-0.37881 3.7881-69.827-1.389z" fill="#c8ab37"/>
    <path d="m493.33 1758.7 69.701 0.8838-0.37881 3.7881-69.827-1.389z" fill="url(#a)"/>
   </g>
   <g transform="matrix(1.334 .22436 -.23333 1.2827 65.578 -140.57)">
    <path d="m493.33 1758.7 69.701 0.8838-0.37881 3.7881-69.827-1.389z" fill="#c8ab37"/>
    <path d="m493.33 1758.7 69.701 0.8838-0.37881 3.7881-69.827-1.389z" fill="url(#a)"/>
   </g>
   <g transform="matrix(1.3289 .2411 -.23245 1.3784 59.44 -296.89)">
    <path d="m493.33 1758.7 69.701 0.8838-0.37881 3.7881-69.827-1.389z" fill="#c8ab37"/>
    <path d="m493.33 1758.7 69.701 0.8838-0.37881 3.7881-69.827-1.389z" fill="url(#a)"/>
   </g>
  </g>
  <path transform="rotate(3.8014)" d="m-775.88 1784.3h68.438v5.3033h-68.438z" fill="#24b11d"/>
  <path transform="rotate(3.8014)" d="m-775.88 1784.3h68.438v5.3033h-68.438z" fill="url(#ag)"/>
  <g transform="translate(-1402.1 16.162)">
   <path d="m362.14 2675.9-8.2143 49.286c-102.55-19.444-199.63-47.105-283.21-95l21.429-41.428z"/>
   <path d="m93.469 2591.9-19.281 37.25c82.009 46.517 177.08 73.749 277.62 92.969l7.4062-44.437-265.75-85.781z" fill="url(#af)"/>
   <path d="m270.36 2675.9 8.9286-25.714-126.07-39.643-7.5 24.643z"/>
   <path d="m269.64 2682-3.9286 22.857c-46.746-11.574-91.824-27.597-135.71-46.786l9.6429-20.714z" fill="#ccc"/>
   <path d="m270.36 2675.9 8.9286-25.714-126.07-39.643-7.5 24.643z" fill="url(#ae)"/>
   <path d="m140.84 2640.1-7.875 16.844c42.418 18.433 85.951 33.878 131 45.188l3.2188-18.656-126.34-43.375z" fill="url(#aj)"/>
  </g>
  <path d="m-830 1651.6-30.714 78.571c-5.6774 2.6191-3.4494 5.2381-0.71428 7.8572l-330 910c-21.89 3.4238-10.471 17.506-10.714 27.857l-6.4285 11.428" fill="none" stroke="#fff" stroke-width="2"/>
  <path d="m-1145 2702.4 3.5714-11.429c-4.8486-10.808-8.9592-21.493 8.5715-28.571l297.86-921.43c-1.9048-2.8571-0.4762-5.7143 4.2857-8.5714l25-32.857" fill="none" stroke="#fff" stroke-width="2"/>
  <path d="m-1228.6 2680.9 6.4285-16.428c-0.9896-9.3872-4.9115-19.855 11.429-22.857l338.93-904.64c-2.3292-3.7215-1.237-6.8728 2.1429-9.6428l23.929-52.143" fill="none" stroke="#fff" stroke-width="2"/>
  <path d="m-852.86 1701.6-28.929 26.071c-0.87583 2.1412-4.7916 2.4584-1.4286 7.1429l-350.71 898.21c-11.011 0.6613-12.732 11.827-11.429 21.429l-6.7857 16.428" fill="none" stroke="#fff" stroke-width="2"/>
  <path d="m-1191.4 2695.2 10-19.286c-6.3505-14.604-0.4491-19.839 9.2858-22.143l322.14-916.43c-3.3594-2.9762-1.0838-5.9524 2.1429-8.9286l65.714-76.071" fill="none" stroke="#fff" stroke-width="2"/>
  <path d="m-1164.3 2698.1 5-15.714c-5.4762-12.143-2.8572-19.524 7.8571-22.143l308.93-921.43c-3.4125-4.3517-1.9408-7.0754 3.2143-8.5713l44.286-53.572" fill="none" stroke="#fff" stroke-width="2"/>
 </g>
</svg>
