<?xml version="1.0" encoding="UTF-8"?>
<svg viewBox="0 0 500 120" xmlns="http://www.w3.org/2000/svg">
 <path d="m0 111c0 4.971 4.029 9 9 9h482c4.971 0 9-4.029 9-9v-102c0-4.971-4.029-9-9-9h-482c-4.971 0-9 4.029-9 9v102z" fill="#231f20"/>
 <path d="m475,102c0,1.104.896,2 2,2h5c1.104,0 2-.896 2-2v-46c0-1.104-.896-2-2-2h-5c-1.104,0-2,.896-2,2v46z" fill="#fff"/>
 <path d="m475,102c0,1.104.896,2 2,2h5c1.104,0 2-.896 2-2v-46c0-1.104-.896-2-2-2h-5c-1.104,0-2,.896-2,2v46z" fill="none" stroke="#000"/>
 <path d="m466,102c0,1.104.896,2 2,2h5c1.104,0 2-.896 2-2v-46c0-1.104-.896-2-2-2h-5c-1.104,0-2,.896-2,2v46z" fill="#fff"/>
 <path d="m466,102c0,1.104.896,2 2,2h5c1.104,0 2-.896 2-2v-46c0-1.104-.896-2-2-2h-5c-1.104,0-2,.896-2,2v46z" fill="none" stroke="#000"/>
 <path d="m457,102c0,1.104.896,2 2,2h5c1.104,0 2-.896 2-2v-46c0-1.104-.896-2-2-2h-5c-1.104,0-2,.896-2,2v46z" fill="#fff"/>
 <path d="m457,102c0,1.104.896,2 2,2h5c1.104,0 2-.896 2-2v-46c0-1.104-.896-2-2-2h-5c-1.104,0-2,.896-2,2v46z" fill="none" stroke="#000"/>
 <path d="m448,102c0,1.104.896,2 2,2h5c1.104,0 2-.896 2-2v-46c0-1.104-.896-2-2-2h-5c-1.104,0-2,.896-2,2v46z" fill="#fff"/>
 <path d="m448,102c0,1.104.896,2 2,2h5c1.104,0 2-.896 2-2v-46c0-1.104-.896-2-2-2h-5c-1.104,0-2,.896-2,2v46z" fill="none" stroke="#000"/>
 <path d="m439,102c0,1.104.896,2 2,2h5c1.104,0 2-.896 2-2v-46c0-1.104-.896-2-2-2h-5c-1.104,0-2,.896-2,2v46z" fill="#fff"/>
 <path d="m439,102c0,1.104.896,2 2,2h5c1.104,0 2-.896 2-2v-46c0-1.104-.896-2-2-2h-5c-1.104,0-2,.896-2,2v46z" fill="none" stroke="#000"/>
 <path d="m430,102c0,1.104.896,2 2,2h5c1.104,0 2-.896 2-2v-46c0-1.104-.896-2-2-2h-5c-1.104,0-2,.896-2,2v46z" fill="#fff"/>
 <path d="m430,102c0,1.104.896,2 2,2h5c1.104,0 2-.896 2-2v-46c0-1.104-.896-2-2-2h-5c-1.104,0-2,.896-2,2v46z" fill="none" stroke="#000"/>
 <path d="m421,102c0,1.104.896,2 2,2h5c1.104,0 2-.896 2-2v-46c0-1.104-.896-2-2-2h-5c-1.104,0-2,.896-2,2v46z" fill="#fff"/>
 <path d="m421,102c0,1.104.896,2 2,2h5c1.104,0 2-.896 2-2v-46c0-1.104-.896-2-2-2h-5c-1.104,0-2,.896-2,2v46z" fill="none" stroke="#000"/>
 <path d="m412,102c0,1.104.896,2 2,2h5c1.104,0 2-.896 2-2v-46c0-1.104-.896-2-2-2h-5c-1.104,0-2,.896-2,2v46z" fill="#fff"/>
 <path d="m412,102c0,1.104.896,2 2,2h5c1.104,0 2-.896 2-2v-46c0-1.104-.896-2-2-2h-5c-1.104,0-2,.896-2,2v46z" fill="none" stroke="#000"/>
 <path d="m403,102c0,1.104.896,2 2,2h5c1.104,0 2-.896 2-2v-46c0-1.104-.896-2-2-2h-5c-1.104,0-2,.896-2,2v46z" fill="#fff"/>
 <path d="m403,102c0,1.104.896,2 2,2h5c1.104,0 2-.896 2-2v-46c0-1.104-.896-2-2-2h-5c-1.104,0-2,.896-2,2v46z" fill="none" stroke="#000"/>
 <path d="m394,102c0,1.104.896,2 2,2h5c1.104,0 2-.896 2-2v-46c0-1.104-.896-2-2-2h-5c-1.104,0-2,.896-2,2v46z" fill="#fff"/>
 <path d="m394,102c0,1.104.896,2 2,2h5c1.104,0 2-.896 2-2v-46c0-1.104-.896-2-2-2h-5c-1.104,0-2,.896-2,2v46z" fill="none" stroke="#000"/>
 <path d="m385,102c0,1.104.896,2 2,2h5c1.104,0 2-.896 2-2v-46c0-1.104-.896-2-2-2h-5c-1.104,0-2,.896-2,2v46z" fill="#fff"/>
 <path d="m385,102c0,1.104.896,2 2,2h5c1.104,0 2-.896 2-2v-46c0-1.104-.896-2-2-2h-5c-1.104,0-2,.896-2,2v46z" fill="none" stroke="#000"/>
 <path d="m376,102c0,1.104.896,2 2,2h5c1.104,0 2-.896 2-2v-46c0-1.104-.896-2-2-2h-5c-1.104,0-2,.896-2,2v46z" fill="#fff"/>
 <path d="m376,102c0,1.104.896,2 2,2h5c1.104,0 2-.896 2-2v-46c0-1.104-.896-2-2-2h-5c-1.104,0-2,.896-2,2v46z" fill="none" stroke="#000"/>
 <path d="m367,102c0,1.104.896,2 2,2h5c1.104,0 2-.896 2-2v-46c0-1.104-.896-2-2-2h-5c-1.104,0-2,.896-2,2v46z" fill="#fff"/>
 <path d="m367,102c0,1.104.896,2 2,2h5c1.104,0 2-.896 2-2v-46c0-1.104-.896-2-2-2h-5c-1.104,0-2,.896-2,2v46z" fill="none" stroke="#000"/>
 <path d="m358,102c0,1.104.896,2 2,2h5c1.104,0 2-.896 2-2v-46c0-1.104-.896-2-2-2h-5c-1.104,0-2,.896-2,2v46z" fill="#fff"/>
 <path d="m358,102c0,1.104.896,2 2,2h5c1.104,0 2-.896 2-2v-46c0-1.104-.896-2-2-2h-5c-1.104,0-2,.896-2,2v46z" fill="none" stroke="#000"/>
 <path d="m349,102c0,1.104.896,2 2,2h5c1.104,0 2-.896 2-2v-46c0-1.104-.896-2-2-2h-5c-1.104,0-2,.896-2,2v46z" fill="#fff"/>
 <path d="m349,102c0,1.104.896,2 2,2h5c1.104,0 2-.896 2-2v-46c0-1.104-.896-2-2-2h-5c-1.104,0-2,.896-2,2v46z" fill="none" stroke="#000"/>
 <path d="m340,102c0,1.104.896,2 2,2h5c1.104,0 2-.896 2-2v-46c0-1.104-.896-2-2-2h-5c-1.104,0-2,.896-2,2v46z" fill="#fff"/>
 <path d="m340,102c0,1.104.896,2 2,2h5c1.104,0 2-.896 2-2v-46c0-1.104-.896-2-2-2h-5c-1.104,0-2,.896-2,2v46z" fill="none" stroke="#000"/>
 <path d="m331,102c0,1.104.896,2 2,2h5c1.104,0 2-.896 2-2v-46c0-1.104-.896-2-2-2h-5c-1.104,0-2,.896-2,2v46z" fill="#fff"/>
 <path d="m331,102c0,1.104.896,2 2,2h5c1.104,0 2-.896 2-2v-46c0-1.104-.896-2-2-2h-5c-1.104,0-2,.896-2,2v46z" fill="none" stroke="#000"/>
 <path d="m322,102c0,1.104.896,2 2,2h5c1.104,0 2-.896 2-2v-46c0-1.104-.896-2-2-2h-5c-1.104,0-2,.896-2,2v46z" fill="#fff"/>
 <path d="m322,102c0,1.104.896,2 2,2h5c1.104,0 2-.896 2-2v-46c0-1.104-.896-2-2-2h-5c-1.104,0-2,.896-2,2v46z" fill="none" stroke="#000"/>
 <path d="m313,102c0,1.104.896,2 2,2h5c1.104,0 2-.896 2-2v-46c0-1.104-.896-2-2-2h-5c-1.104,0-2,.896-2,2v46z" fill="#fff"/>
 <path d="m313,102c0,1.104.896,2 2,2h5c1.104,0 2-.896 2-2v-46c0-1.104-.896-2-2-2h-5c-1.104,0-2,.896-2,2v46z" fill="none" stroke="#000"/>
 <path d="m304,102c0,1.104.896,2 2,2h5c1.104,0 2-.896 2-2v-46c0-1.104-.896-2-2-2h-5c-1.104,0-2,.896-2,2v46z" fill="#fff"/>
 <path d="m304,102c0,1.104.896,2 2,2h5c1.104,0 2-.896 2-2v-46c0-1.104-.896-2-2-2h-5c-1.104,0-2,.896-2,2v46z" fill="none" stroke="#000"/>
 <path d="m295,102c0,1.104.896,2 2,2h5c1.104,0 2-.896 2-2v-46c0-1.104-.896-2-2-2h-5c-1.104,0-2,.896-2,2v46z" fill="#fff"/>
 <path d="m295,102c0,1.104.896,2 2,2h5c1.104,0 2-.896 2-2v-46c0-1.104-.896-2-2-2h-5c-1.104,0-2,.896-2,2v46z" fill="none" stroke="#000"/>
 <path d="m286,102c0,1.104.896,2 2,2h5c1.104,0 2-.896 2-2v-46c0-1.104-.896-2-2-2h-5c-1.104,0-2,.896-2,2v46z" fill="#fff"/>
 <path d="m286,102c0,1.104.896,2 2,2h5c1.104,0 2-.896 2-2v-46c0-1.104-.896-2-2-2h-5c-1.104,0-2,.896-2,2v46z" fill="none" stroke="#000"/>
 <path d="m277,102c0,1.104.896,2 2,2h5c1.104,0 2-.896 2-2v-46c0-1.104-.896-2-2-2h-5c-1.104,0-2,.896-2,2v46z" fill="#fff"/>
 <path d="m277,102c0,1.104.896,2 2,2h5c1.104,0 2-.896 2-2v-46c0-1.104-.896-2-2-2h-5c-1.104,0-2,.896-2,2v46z" fill="none" stroke="#000"/>
 <path d="m268,102c0,1.104.896,2 2,2h5c1.104,0 2-.896 2-2v-46c0-1.104-.896-2-2-2h-5c-1.104,0-2,.896-2,2v46z" fill="#fff"/>
 <path d="m268,102c0,1.104.896,2 2,2h5c1.104,0 2-.896 2-2v-46c0-1.104-.896-2-2-2h-5c-1.104,0-2,.896-2,2v46z" fill="none" stroke="#000"/>
 <path d="m259,102c0,1.104.896,2 2,2h5c1.104,0 2-.896 2-2v-46c0-1.104-.896-2-2-2h-5c-1.104,0-2,.896-2,2v46z" fill="#fff"/>
 <path d="m259,102c0,1.104.896,2 2,2h5c1.104,0 2-.896 2-2v-46c0-1.104-.896-2-2-2h-5c-1.104,0-2,.896-2,2v46z" fill="none" stroke="#000"/>
 <path d="m250,102c0,1.104.896,2 2,2h5c1.104,0 2-.896 2-2v-46c0-1.104-.896-2-2-2h-5c-1.104,0-2,.896-2,2v46z" fill="#fff"/>
 <path d="m250,102c0,1.104.896,2 2,2h5c1.104,0 2-.896 2-2v-46c0-1.104-.896-2-2-2h-5c-1.104,0-2,.896-2,2v46z" fill="none" stroke="#000"/>
 <path d="m241,102c0,1.104.896,2 2,2h5c1.104,0 2-.896 2-2v-46c0-1.104-.896-2-2-2h-5c-1.104,0-2,.896-2,2v46z" fill="#fff"/>
 <path d="m241,102c0,1.104.896,2 2,2h5c1.104,0 2-.896 2-2v-46c0-1.104-.896-2-2-2h-5c-1.104,0-2,.896-2,2v46z" fill="none" stroke="#000"/>
 <path d="m232,102c0,1.104.896,2 2,2h5c1.104,0 2-.896 2-2v-46c0-1.104-.896-2-2-2h-5c-1.104,0-2,.896-2,2v46z" fill="#fff"/>
 <path d="m232,102c0,1.104.896,2 2,2h5c1.104,0 2-.896 2-2v-46c0-1.104-.896-2-2-2h-5c-1.104,0-2,.896-2,2v46z" fill="none" stroke="#000"/>
 <path d="m223,102c0,1.104.896,2 2,2h5c1.104,0 2-.896 2-2v-46c0-1.104-.896-2-2-2h-5c-1.104,0-2,.896-2,2v46z" fill="#fff"/>
 <path d="m223,102c0,1.104.896,2 2,2h5c1.104,0 2-.896 2-2v-46c0-1.104-.896-2-2-2h-5c-1.104,0-2,.896-2,2v46z" fill="none" stroke="#000"/>
 <path d="m214,102c0,1.104.896,2 2,2h5c1.104,0 2-.896 2-2v-46c0-1.104-.896-2-2-2h-5c-1.104,0-2,.896-2,2v46z" fill="#fff"/>
 <path d="m214,102c0,1.104.896,2 2,2h5c1.104,0 2-.896 2-2v-46c0-1.104-.896-2-2-2h-5c-1.104,0-2,.896-2,2v46z" fill="none" stroke="#000"/>
 <path d="m205,102c0,1.104.896,2 2,2h5c1.104,0 2-.896 2-2v-46c0-1.104-.896-2-2-2h-5c-1.104,0-2,.896-2,2v46z" fill="#fff"/>
 <path d="m205,102c0,1.104.896,2 2,2h5c1.104,0 2-.896 2-2v-46c0-1.104-.896-2-2-2h-5c-1.104,0-2,.896-2,2v46z" fill="none" stroke="#000"/>
 <path d="m196,102c0,1.104.896,2 2,2h5c1.104,0 2-.896 2-2v-46c0-1.104-.896-2-2-2h-5c-1.104,0-2,.896-2,2v46z" fill="#fff"/>
 <path d="m196,102c0,1.104.896,2 2,2h5c1.104,0 2-.896 2-2v-46c0-1.104-.896-2-2-2h-5c-1.104,0-2,.896-2,2v46z" fill="none" stroke="#000"/>
 <path d="m187,102c0,1.104.896,2 2,2h5c1.104,0 2-.896 2-2v-46c0-1.104-.896-2-2-2h-5c-1.104,0-2,.896-2,2v46z" fill="#fff"/>
 <path d="m187,102c0,1.104.896,2 2,2h5c1.104,0 2-.896 2-2v-46c0-1.104-.896-2-2-2h-5c-1.104,0-2,.896-2,2v46z" fill="none" stroke="#000"/>
 <path d="m178,102c0,1.104.896,2 2,2h5c1.104,0 2-.896 2-2v-46c0-1.104-.896-2-2-2h-5c-1.104,0-2,.896-2,2v46z" fill="#fff"/>
 <path d="m178,102c0,1.104.896,2 2,2h5c1.104,0 2-.896 2-2v-46c0-1.104-.896-2-2-2h-5c-1.104,0-2,.896-2,2v46z" fill="none" stroke="#000"/>
 <path d="m169,102c0,1.104.896,2 2,2h5c1.104,0 2-.896 2-2v-46c0-1.104-.896-2-2-2h-5c-1.104,0-2,.896-2,2v46z" fill="#fff"/>
 <path d="m169,102c0,1.104.896,2 2,2h5c1.104,0 2-.896 2-2v-46c0-1.104-.896-2-2-2h-5c-1.104,0-2,.896-2,2v46z" fill="none" stroke="#000"/>
 <path d="m160,102c0,1.104.896,2 2,2h5c1.104,0 2-.896 2-2v-46c0-1.104-.896-2-2-2h-5c-1.104,0-2,.896-2,2v46z" fill="#fff"/>
 <path d="m160,102c0,1.104.896,2 2,2h5c1.104,0 2-.896 2-2v-46c0-1.104-.896-2-2-2h-5c-1.104,0-2,.896-2,2v46z" fill="none" stroke="#000"/>
 <path d="m151,102c0,1.104.896,2 2,2h5c1.104,0 2-.896 2-2v-46c0-1.104-.896-2-2-2h-5c-1.104,0-2,.896-2,2v46z" fill="#fff"/>
 <path d="m151,102c0,1.104.896,2 2,2h5c1.104,0 2-.896 2-2v-46c0-1.104-.896-2-2-2h-5c-1.104,0-2,.896-2,2v46z" fill="none" stroke="#000"/>
 <path d="m142,102c0,1.104.896,2 2,2h5c1.104,0 2-.896 2-2v-46c0-1.104-.896-2-2-2h-5c-1.104,0-2,.896-2,2v46z" fill="#fff"/>
 <path d="m142,102c0,1.104.896,2 2,2h5c1.104,0 2-.896 2-2v-46c0-1.104-.896-2-2-2h-5c-1.104,0-2,.896-2,2v46z" fill="none" stroke="#000"/>
 <path d="m133,102c0,1.104.896,2 2,2h5c1.104,0 2-.896 2-2v-46c0-1.104-.896-2-2-2h-5c-1.104,0-2,.896-2,2v46z" fill="#fff"/>
 <path d="m133,102c0,1.104.896,2 2,2h5c1.104,0 2-.896 2-2v-46c0-1.104-.896-2-2-2h-5c-1.104,0-2,.896-2,2v46z" fill="none" stroke="#000"/>
 <path d="m124,102c0,1.104.896,2 2,2h5c1.104,0 2-.896 2-2v-46c0-1.104-.896-2-2-2h-5c-1.104,0-2,.896-2,2v46z" fill="#fff"/>
 <path d="m124,102c0,1.104.896,2 2,2h5c1.104,0 2-.896 2-2v-46c0-1.104-.896-2-2-2h-5c-1.104,0-2,.896-2,2v46z" fill="none" stroke="#000"/>
 <path d="m115,102c0,1.104.896,2 2,2h5c1.104,0 2-.896 2-2v-46c0-1.104-.896-2-2-2h-5c-1.104,0-2,.896-2,2v46z" fill="#fff"/>
 <path d="m115,102c0,1.104.896,2 2,2h5c1.104,0 2-.896 2-2v-46c0-1.104-.896-2-2-2h-5c-1.104,0-2,.896-2,2v46z" fill="none" stroke="#000"/>
 <path d="m106,102c0,1.104.896,2 2,2h5c1.104,0 2-.896 2-2v-46c0-1.104-.896-2-2-2h-5c-1.104,0-2,.896-2,2v46z" fill="#fff"/>
 <path d="m106,102c0,1.104.896,2 2,2h5c1.104,0 2-.896 2-2v-46c0-1.104-.896-2-2-2h-5c-1.104,0-2,.896-2,2v46z" fill="none" stroke="#000"/>
 <path d="m97,102c0,1.104.896,2 2,2h5c1.104,0 2-.896 2-2v-46c0-1.104-.896-2-2-2h-5c-1.104,0-2,.896-2,2v46z" fill="#fff"/>
 <path d="m97,102c0,1.104.896,2 2,2h5c1.104,0 2-.896 2-2v-46c0-1.104-.896-2-2-2h-5c-1.104,0-2,.896-2,2v46z" fill="none" stroke="#000"/>
 <path d="m88,102c0,1.104.896,2 2,2h5c1.104,0 2-.896 2-2v-46c0-1.104-.896-2-2-2h-5c-1.104,0-2,.896-2,2v46z" fill="#fff"/>
 <path d="m88,102c0,1.104.896,2 2,2h5c1.104,0 2-.896 2-2v-46c0-1.104-.896-2-2-2h-5c-1.104,0-2,.896-2,2v46z" fill="none" stroke="#000"/>
 <path d="m79,102c0,1.104.896,2 2,2h5c1.104,0 2-.896 2-2v-46c0-1.104-.896-2-2-2h-5c-1.104,0-2,.896-2,2v46z" fill="#fff"/>
 <path d="m79,102c0,1.104.896,2 2,2h5c1.104,0 2-.896 2-2v-46c0-1.104-.896-2-2-2h-5c-1.104,0-2,.896-2,2v46z" fill="none" stroke="#000"/>
 <path d="m70,102c0,1.104.896,2 2,2h5c1.104,0 2-.896 2-2v-46c0-1.104-.896-2-2-2h-5c-1.104,0-2,.896-2,2v46z" fill="#fff"/>
 <path d="m70,102c0,1.104.896,2 2,2h5c1.104,0 2-.896 2-2v-46c0-1.104-.896-2-2-2h-5c-1.104,0-2,.896-2,2v46z" fill="none" stroke="#000"/>
 <path d="m61,102c0,1.104.896,2 2,2h5c1.104,0 2-.896 2-2v-46c0-1.104-.896-2-2-2h-5c-1.104,0-2,.896-2,2v46z" fill="#fff"/>
 <path d="m61,102c0,1.104.896,2 2,2h5c1.104,0 2-.896 2-2v-46c0-1.104-.896-2-2-2h-5c-1.104,0-2,.896-2,2v46z" fill="none" stroke="#000"/>
 <path d="m52,102c0,1.104.896,2 2,2h5c1.104,0 2-.896 2-2v-46c0-1.104-.896-2-2-2h-5c-1.104,0-2,.896-2,2v46z" fill="#fff"/>
 <path d="m52,102c0,1.104.896,2 2,2h5c1.104,0 2-.896 2-2v-46c0-1.104-.896-2-2-2h-5c-1.104,0-2,.896-2,2v46z" fill="none" stroke="#000"/>
 <path d="m43,102c0,1.104.896,2 2,2h5c1.104,0 2-.896 2-2v-46c0-1.104-.896-2-2-2h-5c-1.104,0-2,.896-2,2v46z" fill="#fff"/>
 <path d="m43,102c0,1.104.896,2 2,2h5c1.104,0 2-.896 2-2v-46c0-1.104-.896-2-2-2h-5c-1.104,0-2,.896-2,2v46z" fill="none" stroke="#000"/>
 <path d="m34,102c0,1.104.896,2 2,2h5c1.104,0 2-.896 2-2v-46c0-1.104-.896-2-2-2h-5c-1.104,0-2,.896-2,2v46z" fill="#fff"/>
 <path d="m34,102c0,1.104.896,2 2,2h5c1.104,0 2-.896 2-2v-46c0-1.104-.896-2-2-2h-5c-1.104,0-2,.896-2,2v46z" fill="none" stroke="#000"/>
 <path d="m25,102c0,1.104.896,2 2,2h5c1.104,0 2-.896 2-2v-46c0-1.104-.896-2-2-2h-5c-1.104,0-2,.896-2,2v46z" fill="#fff"/>
 <path d="m25,102c0,1.104.896,2 2,2h5c1.104,0 2-.896 2-2v-46c0-1.104-.896-2-2-2h-5c-1.104,0-2,.896-2,2v46z" fill="none" stroke="#000"/>
 <path d="m16,102c0,1.104.896,2 2,2h5c1.104,0 2-.896 2-2v-46c0-1.104-.896-2-2-2h-5c-1.104,0-2,.896-2,2v46z" fill="#fff"/>
 <path d="m16,102c0,1.104.896,2 2,2h5c1.104,0 2-.896 2-2v-46c0-1.104-.896-2-2-2h-5c-1.104,0-2,.896-2,2v46z" fill="none" stroke="#000"/>
 <path d="m15 53h470v5h-470z"/>
 <path d="m23 58h5v30h-5z"/>
 <path d="m418 58h5v30h-5z"/>
 <path d="m355 58h5v30h-5z"/>
 <path d="m292 58h5v30h-5z"/>
 <path d="m229 58h5v30h-5z"/>
 <path d="m166 58h5v30h-5z"/>
 <path d="m103 58h5v30h-5z"/>
 <path d="m40 58h5v30h-5z"/>
 <path d="m428 58h5v30h-5z"/>
 <path d="m365 58h5v30h-5z"/>
 <path d="m302 58h5v30h-5z"/>
 <path d="m239 58h5v30h-5z"/>
 <path d="m176 58h5v30h-5z"/>
 <path d="m113 58h5v30h-5z"/>
 <path d="m50 58h5v30h-5z"/>
 <path d="m445 58h5v30h-5z"/>
 <path d="m382 58h5v30h-5z"/>
 <path d="m319 58h5v30h-5z"/>
 <path d="m256 58h5v30h-5z"/>
 <path d="m193 58h5v30h-5z"/>
 <path d="m130 58h5v30h-5z"/>
 <path d="m67 58h5v30h-5z"/>
 <path d="m454.5 58h5v30h-5z"/>
 <path d="m391.5 58h5v30h-5z"/>
 <path d="m328.5 58h5v30h-5z"/>
 <path d="m265.5 58h5v30h-5z"/>
 <path d="m202.5 58h5v30h-5z"/>
 <path d="m139.5 58h5v30h-5z"/>
 <path d="m76.5 58h5v30h-5z"/>
 <path d="m464 58h5v30h-5z"/>
 <path d="m401 58h5v30h-5z"/>
 <path d="m338 58h5v30h-5z"/>
 <path d="m275 58h5v30h-5z"/>
 <path d="m212 58h5v30h-5z"/>
 <path d="m149 58h5v30h-5z"/>
 <path d="m86 58h5v30h-5z"/>
 <g fill="none" stroke="#808080">
  <path d="m15 19h470v5h-470z"/>
  <path d="m15 24h470v5h-470z"/>
  <path d="m15 29h470v5h-470z"/>
  <path d="m15 34h470v5h-470z"/>
 </g>
 <g fill="#999">
  <path d="m23.768,29.876c.352-.053.555-.08.608-.08 1.045,0 1.909.405 2.592,1.216 .65.768.976,1.701.976,2.799-.011,1.749-.876,3.034-2.598,3.855l.662,3.378c.021.106.032.352.032.736 0,.885-.288,1.605-.864,2.16-.576.555-1.328.832-2.256.832-.672,0-1.28-.213-1.824-.64s-.854-.981-.928-1.664c-.053-.501.069-.965.368-1.392s.677-.667 1.136-.72c.438-.054.824.083 1.16.408 .336.325.515.712.536,1.16 .021.565-.198.998-.656,1.296-.363.256-.704.352-1.024.288 .032.246.229.443.592.592 .32.117.629.16.928.128 1.482-.16 2.245-.982 2.288-2.466 .01-.31-.033-.721-.13-1.233l-.549-2.655c-.544.183-1.063.274-1.554.274-1.474,0-2.745-.6-3.813-1.8s-1.602-2.605-1.602-4.216c0-1.312.49-2.65 1.472-4.016 .427-.586 1.392-1.664 2.896-3.232-.309-1.173-.464-2.4-.464-3.68 0-.938.181-1.909.544-2.912 .438-1.237 1.013-1.984 1.728-2.24 .341-.128.747.424 1.216,1.656s.693,2.312.672,3.24c-.043,2.315-.939,4.363-2.688,6.144l.544,2.784zm-.128,1.968c-.501.139-.917.424-1.248.856s-.496.909-.496,1.432c.011.768.453,1.35 1.328,1.744 .064.064.096.123.096.176 0,.139-.075.198-.224.176-.629-.203-1.142-.586-1.536-1.152s-.587-1.2-.576-1.904c.011-.651.238-1.283.681-1.896s.963-1.032 1.561-1.256l-.494-2.528c-1.153,1.045-1.98,1.915-2.482,2.608-.791,1.12-1.186,2.25-1.186,3.392 0,1.248.459,2.256 1.377,3.024 .875.736 1.931,1.077 3.169,1.024 .374-.021.742-.081 1.104-.177l-1.074-5.519zm1.584-12.303c-.011-.277-.096-.52-.256-.728s-.374-.312-.64-.312c-.619.118-1.109.64-1.472,1.568-.288.736-.438,1.499-.448,2.288-.011.491.074,1.184.256,2.08 .747-.64 1.349-1.36 1.808-2.16 .533-.928.784-1.84.752-2.736zm.01,17.646c.509-.277.915-.669 1.217-1.176s.432-1.042.389-1.607c-.053-.768-.333-1.402-.84-1.903s-1.123-.735-1.848-.704l1.082,5.39z"/>
  <path d="m32.828,20.716-.832.368v2.576l-.496.192v-2.592l-.928.352v2.64l-.496.208v-2.688l-.848.304v-1.728l.848-.336v-2.432l-.848.32v-1.744l.848-.32v-2.752l.496-.176v2.752l.928-.336v-2.816l.496-.176v2.816l.832-.304v1.696l-.832.352v2.432l.832-.304v1.696zm-1.328-1.216v-2.448l-.976.368v2.448l.976-.368z"/>
 </g>
 <g fill="#999">
  <path d="m54.128,41.28c0,.522-.235,1.019-.704,1.488-.448.427-.955.714-1.52.864-.448.117-.859.176-1.232.176-.768,0-1.302-.251-1.6-.752-.118-.203-.176-.427-.176-.672 0-.438.171-.859.512-1.264s.794-.709 1.36-.912c.416-.138.827-.208 1.232-.208 .512,0 .96.102 1.344.304v-9.2h.784v10.176z"/>
  <path d="m197.09,41.28c0,.522-.235,1.019-.704,1.488-.448.427-.955.714-1.52.864-.448.117-.859.176-1.232.176-.768,0-1.302-.251-1.6-.752-.118-.203-.176-.427-.176-.672 0-.438.171-.859.512-1.264s.794-.709 1.36-.912c.416-.138.827-.208 1.232-.208 .512,0 .96.102 1.344.304v-9.2h.784v10.176z"/>
  <path d="m242.871,25.736v7.776c0,.522-.235,1.019-.704,1.488-.448.427-.955.714-1.52.864-.448.117-.854.176-1.216.176-.779,0-1.317-.251-1.616-.752-.117-.203-.176-.427-.176-.672 0-.427.171-.845.514-1.256s.797-.717 1.365-.92c.417-.138.829-.208 1.236-.208 .524,0 .979.102 1.365.304v-9.392h.239l.367.48 1.068.928c.787.714 1.414,1.413 1.881,2.096 .648.96.962,1.862.941,2.704-.011.48-.213,1.136-.608,1.968-.31.672-.659,1.293-1.048,1.864s-.584.771-.584.6c0-.064.038-.182.112-.352 .277-.619.554-1.243.832-1.872 .395-.949.597-1.685.608-2.208 .021-.672-.235-1.328-.768-1.968-.395-.49-.891-.922-1.488-1.296-.533-.331-.8-.448-.8-.352z"/>
  <path d="m176.589,30.712h-.448-.336v9.2c-.384-.203-.832-.304-1.344-.304-.405,0-.816.07-1.232.208-.565.203-1.019.507-1.36.912s-.512.827-.512,1.264c0,.245.059.469.176.672 .298.501.832.752 1.6.752 .373,0 .784-.059 1.232-.176 .565-.15 1.072-.438 1.52-.864 .469-.469.704-.965.704-1.488v-8.688h8.448v7.712c-.384-.213-.837-.32-1.36-.32-.406,0-.816.075-1.232.224-.565.192-1.019.494-1.36.904s-.512.829-.512,1.256c0,.256.064.485.192.688 .298.501.832.752 1.6.752 .373,0 .778-.059 1.216-.176 .576-.15 1.083-.443 1.52-.88 .48-.458.72-.949.72-1.472v-10.176h-9.232z"/>
  <path d="m446.628,21.212h-.448-.336v9.2c-.384-.203-.831-.304-1.344-.304-.405,0-.816.07-1.232.208-.564.203-1.018.507-1.359.912s-.512.827-.512,1.264c0,.245.059.469.176.672 .299.501.832.752 1.6.752 .373,0 .784-.059 1.232-.176 .565-.15 1.072-.438 1.52-.864 .47-.469.704-.965.704-1.488v-6.112h8.448v5.136c-.384-.213-.838-.32-1.36-.32-.405,0-.815.075-1.231.224-.565.192-1.019.494-1.36.904s-.512.829-.512,1.256c0,.256.063.485.191.688 .299.501.832.752 1.601.752 .373,0 .778-.059 1.216-.176 .576-.15 1.082-.443 1.52-.88 .48-.458.721-.949.721-1.472v-10.176h-9.235zm8.448,2.576h-8.448v-1.088h8.448v1.088z"/>
  <path d="m292.589,28.244c0,.555-.256,1.083-.768,1.584-.47.469-1.008.778-1.616.928-.479.117-.917.176-1.312.176-.822,0-1.393-.262-1.712-.784-.129-.224-.198-.469-.208-.736 0-.458.184-.907.552-1.344s.855-.762 1.464-.976c.448-.16.891-.24 1.328-.24 .555,0 1.034.112 1.439.336v-9.84h.832v10.896h.001zm-5.024,1.728c.139.213.362.32.672.32 .341,0 .917-.181 1.728-.544 1.163-.522 1.744-1.035 1.744-1.536 0-.149-.051-.304-.151-.464s-.345-.24-.729-.24c-.47,0-.974.104-1.512.312s-.979.472-1.32.792c-.373.331-.56.651-.56.96 .001.139.042.272.128.4z"/>
  <path d="m70.205,23.84c0,.555-.256,1.083-.768,1.584-.47.469-1.008.778-1.616.928-.479.117-.917.176-1.312.176-.822,0-1.393-.262-1.712-.784-.129-.224-.198-.469-.208-.736 0-.458.184-.907.552-1.344s.855-.762 1.464-.976c.448-.16.891-.24 1.328-.24 .555,0 1.034.112 1.439.336v-9.84h.832v10.896h.001zm-5.024,1.728c.139.213.362.32.672.32 .341,0 .917-.181 1.728-.544 1.163-.522 1.744-1.035 1.744-1.536 0-.149-.051-.304-.151-.464s-.345-.24-.729-.24c-.47,0-.974.104-1.512.312s-.979.472-1.32.792c-.373.331-.56.651-.56.96 0,.139.042.272.128.4z"/>
  <path d="m356.128,28.236c0,.555-.256,1.083-.768,1.584-.47.469-1.008.778-1.616.928-.479.117-.917.176-1.312.176-.822,0-1.393-.262-1.712-.784-.129-.224-.198-.469-.208-.736 0-.458.184-.907.552-1.344s.855-.762 1.464-.976c.448-.16.891-.24 1.328-.24 .555,0 1.034.112 1.439.336v-9.84h.832v10.896h.001zm-5.024,1.728c.139.213.362.32.672.32 .341,0 .917-.181 1.728-.544 1.163-.522 1.744-1.035 1.744-1.536 0-.149-.051-.304-.151-.464s-.345-.24-.729-.24c-.47,0-.974.104-1.512.312s-.979.472-1.32.792c-.373.331-.56.651-.56.96 .001.139.043.272.128.4z"/>
  <path d="m85.897,24c0,.522-.235,1.019-.705,1.488-.447.427-.954.714-1.52.864-.448.117-.859.176-1.232.176-.768,0-1.301-.251-1.6-.752-.117-.203-.176-.427-.176-.672 0-.438.17-.859.512-1.264 .342-.405.795-.709 1.359-.912 .416-.138.827-.208 1.232-.208 .512,0 .961.102 1.344.304v-9.2h.785v10.176h.001z"/>
  <path d="m117.667,25.5c0,.522-.235,1.019-.705,1.488-.447.427-.954.714-1.52.864-.448.117-.859.176-1.232.176-.768,0-1.301-.251-1.6-.752-.117-.203-.176-.427-.176-.672 0-.438.17-.859.512-1.264 .342-.405.795-.709 1.359-.912 .416-.138.827-.208 1.232-.208 .512,0 .961.102 1.344.304v-9.2h.785v10.176h.001z"/>
  <path d="m133.552,31.388c0,.522-.235,1.019-.705,1.488-.447.427-.954.714-1.52.864-.448.117-.859.176-1.232.176-.768,0-1.301-.251-1.6-.752-.117-.203-.176-.427-.176-.672 0-.438.17-.859.512-1.264 .342-.405.795-.709 1.359-.912 .416-.138.827-.208 1.232-.208 .512,0 .961.102 1.344.304v-9.2h.785v10.176h.001z"/>
  <path d="m149.436,33.28c0,.522-.235,1.019-.705,1.488-.447.427-.954.714-1.52.864-.448.117-.859.176-1.232.176-.768,0-1.301-.251-1.6-.752-.117-.203-.176-.427-.176-.672 0-.438.17-.859.512-1.264s.795-.709 1.359-.912c.416-.138.827-.208 1.232-.208 .512,0 .961.102 1.344.304v-9.2h.785v10.176h.001z"/>
  <path d="m165.512,38.896c0,.555-.256,1.083-.768,1.584-.47.469-1.008.778-1.616.928-.479.117-.917.176-1.312.176-.822,0-1.393-.262-1.712-.784-.129-.224-.198-.469-.208-.736 0-.458.184-.907.552-1.344s.855-.762 1.464-.976c.448-.16.891-.24 1.328-.24 .555,0 1.034.112 1.439.336v-9.84h.832v10.896h.001zm-5.023,1.728c.139.213.362.32.672.32 .341,0 .917-.181 1.728-.544 1.163-.522 1.744-1.035 1.744-1.536 0-.149-.051-.304-.151-.464s-.345-.24-.729-.24c-.47,0-.974.104-1.512.312s-.979.472-1.32.792c-.373.331-.56.651-.56.96 0,.139.042.272.128.4z"/>
  <path d="m213.166,33.12c0,.555-.256,1.083-.768,1.584-.47.469-1.008.778-1.616.928-.479.117-.917.176-1.312.176-.822,0-1.393-.262-1.712-.784-.129-.224-.198-.469-.208-.736 0-.458.184-.907.552-1.344s.855-.762 1.464-.976c.448-.16.891-.24 1.328-.24 .555,0 1.034.112 1.439.336v-9.84h.832v10.896h.001zm-5.023,1.728c.139.213.362.32.672.32 .341,0 .917-.181 1.728-.544 1.163-.522 1.744-1.035 1.744-1.536 0-.149-.051-.304-.151-.464s-.345-.24-.729-.24c-.47,0-.974.104-1.512.312s-.979.472-1.32.792c-.373.331-.56.651-.56.96 0,.139.042.272.128.4z"/>
  <path d="m228.859,33.28c0,.522-.235,1.019-.705,1.488-.447.427-.954.714-1.52.864-.448.117-.859.176-1.232.176-.768,0-1.301-.251-1.6-.752-.117-.203-.176-.427-.176-.672 0-.438.17-.859.512-1.264s.795-.709 1.359-.912c.417-.138.828-.208 1.233-.208 .512,0 .961.102 1.344.304v-9.2h.785v10.176z"/>
  <path d="m260.629,33.28c0,.522-.235,1.019-.705,1.488-.447.427-.954.714-1.52.864-.448.117-.859.176-1.232.176-.768,0-1.301-.251-1.6-.752-.117-.203-.176-.427-.176-.672 0-.438.17-.859.512-1.264s.795-.709 1.359-.912c.417-.138.828-.208 1.233-.208 .512,0 .961.102 1.344.304v-9.2h.785v10.176z"/>
  <path d="m324.167,33.28c0,.522-.234,1.019-.705,1.488-.447.427-.953.714-1.52.864-.447.117-.859.176-1.232.176-.768,0-1.301-.251-1.6-.752-.117-.203-.176-.427-.176-.672 0-.438.17-.859.512-1.264s.795-.709 1.359-.912c.416-.138.828-.208 1.232-.208 .512,0 .961.102 1.344.304v-9.2h.785v10.176h.001z"/>
  <path d="m340.052,33.28c0,.522-.235,1.019-.705,1.488-.447.427-.954.714-1.52.864-.448.117-.859.176-1.232.176-.768,0-1.301-.251-1.6-.752-.117-.203-.176-.427-.176-.672 0-.438.17-.859.512-1.264s.795-.709 1.359-.912c.416-.138.827-.208 1.232-.208 .512,0 .961.102 1.344.304v-9.2h.785v10.176h.001z"/>
  <path d="m276.514,31.28c0,.522-.235,1.019-.705,1.488-.447.427-.954.714-1.52.864-.448.117-.859.176-1.232.176-.768,0-1.301-.251-1.6-.752-.117-.203-.176-.427-.176-.672 0-.438.17-.859.512-1.264 .342-.405.795-.709 1.359-.912 .416-.138.827-.208 1.232-.208 .512,0 .961.102 1.344.304v-9.2h.785v10.176h.001z"/>
  <path d="m308.282,28c0,.522-.235,1.019-.705,1.488-.447.427-.954.714-1.52.864-.448.117-.859.176-1.232.176-.768,0-1.301-.251-1.6-.752-.117-.203-.176-.427-.176-.672 0-.438.17-.859.512-1.264 .342-.405.795-.709 1.359-.912 .416-.138.827-.208 1.232-.208 .512,0 .961.102 1.344.304v-9.2h.785v10.176h.001z"/>
  <path d="m387.706,28c0,.522-.235,1.019-.705,1.488-.447.427-.954.714-1.52.864-.448.117-.859.176-1.232.176-.768,0-1.301-.251-1.6-.752-.117-.203-.176-.427-.176-.672 0-.438.17-.859.512-1.264 .342-.405.795-.709 1.359-.912 .416-.138.827-.208 1.232-.208 .512,0 .961.102 1.344.304v-9.2h.785v10.176h.001z"/>
  <path d="m371.821,28.5c0,.522-.235,1.019-.705,1.488-.447.427-.954.714-1.52.864-.448.117-.859.176-1.232.176-.768,0-1.301-.251-1.6-.752-.117-.203-.176-.427-.176-.672 0-.438.17-.859.512-1.264 .342-.405.795-.709 1.359-.912 .416-.138.827-.208 1.232-.208 .512,0 .961.102 1.344.304v-9.2h.785v10.176h.001z"/>
  <path d="m403.782,23.84c0,.555-.256,1.083-.768,1.584-.47.469-1.008.778-1.616.928-.479.117-.917.176-1.312.176-.822,0-1.393-.262-1.712-.784-.129-.224-.198-.469-.208-.736 0-.458.184-.907.552-1.344s.855-.762 1.464-.976c.448-.16.891-.24 1.328-.24 .555,0 1.034.112 1.439.336v-9.84h.832v10.896h.001zm-5.023,1.728c.139.213.362.32.672.32 .341,0 .917-.181 1.728-.544 1.163-.522 1.744-1.035 1.744-1.536 0-.149-.051-.304-.151-.464s-.345-.24-.729-.24c-.47,0-.974.104-1.512.312s-.979.472-1.32.792c-.373.331-.56.651-.56.96 0,.139.042.272.128.4z"/>
  <path d="m419.475,24c0,.522-.235,1.019-.705,1.488-.447.427-.954.714-1.52.864-.448.117-.859.176-1.232.176-.768,0-1.301-.251-1.6-.752-.117-.203-.176-.427-.176-.672 0-.438.17-.859.512-1.264 .342-.405.795-.709 1.359-.912 .416-.138.827-.208 1.232-.208 .512,0 .961.102 1.344.304v-9.2h.785v10.176h.001z"/>
  <path d="m435.359,25.5c0,.522-.235,1.019-.705,1.488-.447.427-.954.714-1.52.864-.448.117-.859.176-1.232.176-.768,0-1.301-.251-1.6-.752-.117-.203-.176-.427-.176-.672 0-.438.17-.859.512-1.264 .342-.405.795-.709 1.359-.912 .416-.138.827-.208 1.232-.208 .512,0 .961.102 1.344.304v-9.2h.785v10.176h.001z"/>
  <path d="m467.129,31.388c0,.522-.235,1.019-.705,1.488-.447.427-.954.714-1.52.864-.448.117-.859.176-1.232.176-.768,0-1.301-.251-1.6-.752-.117-.203-.176-.427-.176-.672 0-.438.17-.859.512-1.264 .342-.405.795-.709 1.359-.912 .416-.138.827-.208 1.232-.208 .512,0 .961.102 1.344.304v-9.2h.785v10.176h.001z"/>
  <path d="m99.91,23.612v7.776c0,.522-.235,1.019-.704,1.488-.448.427-.955.714-1.52.864-.448.117-.854.176-1.216.176-.779,0-1.317-.251-1.616-.752-.117-.203-.176-.427-.176-.672 0-.427.171-.845.514-1.256s.797-.717 1.365-.92c.417-.138.829-.208 1.236-.208 .524,0 .979.102 1.365.304v-9.392h.239l.367.48 1.068.928c.787.714 1.414,1.413 1.881,2.096 .648.96.962,1.862.941,2.704-.011.48-.213,1.136-.608,1.968-.31.672-.659,1.293-1.048,1.864s-.584.771-.584.6c0-.064.038-.182.112-.352 .277-.619.554-1.243.832-1.872 .395-.949.597-1.685.608-2.208 .021-.672-.235-1.328-.768-1.968-.395-.49-.891-.922-1.488-1.296-.534-.331-.8-.448-.8-.352z"/>
 </g>
</svg>
